/* XPM */
static char * bgtiles_xpm[] = {
"22 22 79 1",
" 	c None",
".	c #585858",
"+	c #494949",
"@	c #CACACA",
"#	c #CBCBCB",
"$	c #CCCCCC",
"%	c #CDCDCD",
"&	c #CECECE",
"*	c #C8C8C8",
"=	c #C6C6C6",
"-	c #C4C4C4",
";	c #C2C2C2",
">	c #BFBFBF",
",	c #BEBEBE",
"'	c #BBBBBB",
")	c #303030",
"!	c #F3F3F3",
"~	c #F5F5F5",
"{	c #F6F6F6",
"]	c #F1F1F1",
"^	c #EEEEEE",
"/	c #ECECEC",
"(	c #EAEAEA",
"_	c #E7E7E7",
":	c #E4E4E4",
"<	c #E2E2E2",
"[	c #BCBCBC",
"}	c #BAB8B7",
"|	c #B8B2AD",
"1	c #A29A93",
"2	c #000000",
"3	c #BDBDBD",
"4	c #8FB6D5",
"5	c #6099C5",
"6	c #6FA3CA",
"7	c #73A8D1",
"8	c #D8EEFF",
"9	c #EFFCFF",
"0	c #94A2AD",
"a	c #B9B8B6",
"b	c #B5D0E6",
"c	c #DCDBDA",
"d	c #477EAD",
"e	c #3D7EB4",
"f	c #8EB7D8",
"g	c #A0C2DE",
"h	c #758999",
"i	c #B6B0AA",
"j	c #838180",
"k	c #646464",
"l	c #596268",
"m	c #9D948C",
"n	c #647C93",
"o	c #77A9DD",
"p	c #616D7B",
"q	c #B4A9A0",
"r	c #667064",
"s	c #181719",
"t	c #676667",
"u	c #353336",
"v	c #0E150C",
"w	c #193D04",
"x	c #62765A",
"y	c #4C4641",
"z	c #9AB391",
"A	c #5F7954",
"B	c #4E584B",
"C	c #5E7E51",
"D	c #648D53",
"E	c #7D9F6D",
"F	c #5F7158",
"G	c #BABABA",
"H	c #B9B9B9",
"I	c #E3E3E3",
"J	c #E1E1E1",
"K	c #E0E0E0",
"L	c #DEDEDE",
"M	c #DDDDDD",
"N	c #DCDCDC",
"                      ",
"                      ",
"  .................+  ",
"  .@#$%&%$#@*=-;>,')  ",
"  .#!~{{{~!]^/(_:<[)  ",
"  .$''}|12''}|12223)  ",
"  .%'45678'45678903)  ",
"  .&abcdefabcdefgh3)  ",
"  .%ijklmnijklmnop3)  ",
"  .$qrstuvqrstuvwx3)  ",
"  .#yzABCDyzABCDEF[)  ",
"  .@''}|12''}|1222')  ",
"  .*'45678'4567890G)  ",
"  .=abcdefabcdefghH)  ",
"  .-ijklmnijklmnopH)  ",
"  .;qrstuvqrstuvwxH)  ",
"  .>yzABCDyzABCDEFH)  ",
"  .,<<III<<JKLMNNNH)  ",
"  .'[33333['GHHHHHH)  ",
"  +)))))))))))))))))  ",
"                      ",
"                      "};
