/* XPM */
static char * brokenimage_xpm[] = {
"50 57 415 2",
"  	c None",
". 	c #F0F0F0",
"+ 	c #F3F4F4",
"@ 	c #F8F8F8",
"# 	c #FAFBFA",
"$ 	c #F9FAF9",
"% 	c #FBFBFB",
"& 	c #FCFCFB",
"* 	c #FCFDFD",
"= 	c #FDFDFD",
"- 	c #FCFCFD",
"; 	c #FEFDFE",
"> 	c #FEFEFE",
", 	c #F2F2F2",
"' 	c #F9F8F7",
") 	c #F7F7F7",
"! 	c #EEF0EF",
"~ 	c #EBECEB",
"{ 	c #EBEBEB",
"] 	c #E7E7E8",
"^ 	c #E5E6E6",
"/ 	c #E6E6E5",
"( 	c #F5F6F6",
"_ 	c #F5F5F5",
": 	c #F7F8F7",
"< 	c #F9F9FA",
"[ 	c #FBFAFA",
"} 	c #FAFAFA",
"| 	c #FBFBFC",
"1 	c #FFFFFF",
"2 	c #FCFBFB",
"3 	c #EDEDEE",
"4 	c #EBEBEC",
"5 	c #E8E8E8",
"6 	c #E9E9E9",
"7 	c #E4E3E3",
"8 	c #F5F6F5",
"9 	c #F6F6F6",
"0 	c #F9F9F9",
"a 	c #EDEDED",
"b 	c #E9EAE9",
"c 	c #EBECEA",
"d 	c #E6E5E5",
"e 	c #F4F3F3",
"f 	c #F4F4F4",
"g 	c #FFFFFE",
"h 	c #DEDEDE",
"i 	c #A1A1A1",
"j 	c #FEFEFF",
"k 	c #FCFDFC",
"l 	c #F3F3F3",
"m 	c #EFEEEF",
"n 	c #EDECEC",
"o 	c #E8E8EA",
"p 	c #F3F2F2",
"q 	c #B3B3B3",
"r 	c #C3C3C3",
"s 	c #FEFFFE",
"t 	c #F7F6F6",
"u 	c #F1F1F1",
"v 	c #ECECEB",
"w 	c #E5E4E5",
"x 	c #646464",
"y 	c #DFDFDF",
"z 	c #FEFDFD",
"A 	c #F0EFF0",
"B 	c #E3E4E1",
"C 	c #EEEFEF",
"D 	c #FBFCFC",
"E 	c #414141",
"F 	c #FBFCFA",
"G 	c #F6F7F5",
"H 	c #ECECEC",
"I 	c #EAEAE9",
"J 	c #B6B6B6",
"K 	c #AEAEAE",
"L 	c #F6F5F5",
"M 	c #FCFCFC",
"N 	c #111111",
"O 	c #FDFCFC",
"P 	c #F8F7F7",
"Q 	c #F0F0F1",
"R 	c #E9E9E8",
"S 	c #F1F0F1",
"T 	c #E1E1E1",
"U 	c #8E8E8E",
"V 	c #4F4F4F",
"W 	c #AFAFAF",
"X 	c #F0EFEF",
"Y 	c #F6F6F7",
"Z 	c #CDCDCD",
"` 	c #F4F4F3",
" .	c #F1F1F2",
"..	c #EBE9E7",
"+.	c #F1F0F0",
"@.	c #F3F2F1",
"#.	c #E4E4E4",
"$.	c #A0A0A1",
"%.	c #5A5A5A",
"&.	c #979799",
"*.	c #989898",
"=.	c #ABABAB",
"-.	c #EAEBE9",
";.	c #F1F1F0",
">.	c #F2F2F3",
",.	c #F8F8F7",
"'.	c #090909",
").	c #5B5B5B",
"!.	c #C8C8C8",
"~.	c #676767",
"{.	c #EAEAEA",
"].	c #EAECEA",
"^.	c #F2F3F2",
"/.	c #F8F7F6",
"(.	c #000000",
"_.	c #6B6B6B",
":.	c #1F1F1F",
"<.	c #040404",
"[.	c #FDFDFE",
"}.	c #EAE9EB",
"|.	c #F2F2F1",
"1.	c #E5E5E5",
"2.	c #0A0A0A",
"3.	c #777777",
"4.	c #313131",
"5.	c #3C3C3C",
"6.	c #8B8B8B",
"7.	c #909090",
"8.	c #FEFEFD",
"9.	c #F4F3F4",
"0.	c #ECEBEC",
"a.	c #696969",
"b.	c #3F3F3F",
"c.	c #121212",
"d.	c #464646",
"e.	c #E3E3E3",
"f.	c #5E5E5E",
"g.	c #DADADA",
"h.	c #ECEBEA",
"i.	c #F3F3F2",
"j.	c #CECECE",
"k.	c #D1D1D1",
"l.	c #363636",
"m.	c #525252",
"n.	c #F2F3F3",
"o.	c #808080",
"p.	c #616161",
"q.	c #EFEFEF",
"r.	c #232323",
"s.	c #373737",
"t.	c #F5F7F7",
"u.	c #ECEDED",
"v.	c #636363",
"w.	c #BBBABA",
"x.	c #A0A0A0",
"y.	c #292929",
"z.	c #C6C6C6",
"A.	c #A9A9A9",
"B.	c #9A9A9A",
"C.	c #FFFEFF",
"D.	c #CCCCCC",
"E.	c #E7E7E7",
"F.	c #797979",
"G.	c #333333",
"H.	c #B0B0B0",
"I.	c #3E3E3E",
"J.	c #9C9C9C",
"K.	c #FEFFFF",
"L.	c #F8F9F9",
"M.	c #C3C2C2",
"N.	c #B9B9B8",
"O.	c #B4B4B4",
"P.	c #B2B2B2",
"Q.	c #EEEEEE",
"R.	c #979797",
"S.	c #1D1D1D",
"T.	c #828282",
"U.	c #929292",
"V.	c #CACACA",
"W.	c #B4B4B3",
"X.	c #535353",
"Y.	c #4D4D4D",
"Z.	c #4E4E4E",
"`.	c #BABABA",
" +	c #C1C1C1",
".+	c #DCDCDC",
"++	c #DBDBDB",
"@+	c #E1E1E0",
"#+	c #E2E2E2",
"$+	c #8D8D8D",
"%+	c #434343",
"&+	c #606060",
"*+	c #A4A4A4",
"=+	c #DDDDDD",
"-+	c #FBFCFB",
";+	c #5F5F5F",
">+	c #888888",
",+	c #595959",
"'+	c #555555",
")+	c #151515",
"!+	c #515151",
"~+	c #565656",
"{+	c #E6E6E6",
"]+	c #0D0D0D",
"^+	c #0B0B0B",
"/+	c #656565",
"(+	c #878787",
"_+	c #F9FAFA",
":+	c #EDEEEE",
"<+	c #F0F1F1",
"[+	c #FDFDFC",
"}+	c #949494",
"|+	c #6F6F6F",
"1+	c #4B4B4B",
"2+	c #2E2E2E",
"3+	c #050505",
"4+	c #424242",
"5+	c #F3F4F3",
"6+	c #FAFAF9",
"7+	c #FBFBFA",
"8+	c #C5C5C5",
"9+	c #D6D6D6",
"0+	c #BFBFBF",
"a+	c #181818",
"b+	c #EEEDEE",
"c+	c #F6F7F7",
"d+	c #F8F9F8",
"e+	c #ACACAC",
"f+	c #858585",
"g+	c #E9E8E8",
"h+	c #E2E2E1",
"i+	c #C0C0C0",
"j+	c #9E9E9E",
"k+	c #ECEBEB",
"l+	c #EDECED",
"m+	c #FDFCFD",
"n+	c #EEEDED",
"o+	c #FAF9F9",
"p+	c #FAFBFB",
"q+	c #2A2A2A",
"r+	c #767676",
"s+	c #FDFEFE",
"t+	c #FDFEFD",
"u+	c #FBFAFB",
"v+	c #EDEEED",
"w+	c #EEEEEF",
"x+	c #EFF0F0",
"y+	c #CFCFCF",
"z+	c #D4D4D4",
"A+	c #F9FBF9",
"B+	c #EAECEC",
"C+	c #8C8C8C",
"D+	c #FCFBFC",
"E+	c #EAE9E9",
"F+	c #EAEBEB",
"G+	c #EBECEC",
"H+	c #171717",
"I+	c #FAF8FA",
"J+	c #F9F8F9",
"K+	c #EAE9E8",
"L+	c #EBEAEA",
"M+	c #EDEDEC",
"N+	c #F2F1F2",
"O+	c #F5F6F4",
"P+	c #252525",
"Q+	c #9F9F9F",
"R+	c #F6F8F8",
"S+	c #F7F8F8",
"T+	c #F1F2F1",
"U+	c #F2F4F3",
"V+	c #E5E5E7",
"W+	c #E7E6E7",
"X+	c #E8E9E7",
"Y+	c #E8E8E9",
"Z+	c #F7F7F5",
"`+	c #B8B8B8",
" @	c #F8F8F9",
".@	c #FAF9FA",
"+@	c #F9F9F8",
"@@	c #E8E8E7",
"#@	c #F5F5F4",
"$@	c #7E7E7E",
"%@	c #F0F2F2",
"&@	c #F4F6F6",
"*@	c #E5E5E4",
"=@	c #EFEFED",
"-@	c #F1F3F1",
";@	c #D0D0D1",
">@	c #3A3A3A",
",@	c #F6F5F6",
"'@	c #F6F4F4",
")@	c #E3E3E4",
"!@	c #E4E3E4",
"~@	c #F0F1F0",
"{@	c #575757",
"]@	c #F6F7F8",
"^@	c #F8F7F8",
"/@	c #F5F4F5",
"(@	c #F5F4F4",
"_@	c #E1E1E2",
":@	c #E4E4E3",
"<@	c #E7E7E6",
"[@	c #EEEFEE",
"}@	c #D8D8D8",
"|@	c #F4F5F5",
"1@	c #F7F7F6",
"2@	c #E3E5E2",
"3@	c #E1E2E1",
"4@	c #E3E3E2",
"5@	c #F6F6F5",
"6@	c #E3E2E3",
"7@	c #E2E1E1",
"8@	c #E2E3E2",
"9@	c #E4E5E4",
"0@	c #E6E7E7",
"a@	c #EFEFEE",
"b@	c #B7B7B7",
"c@	c #D2D1D1",
"d@	c #F1F2F2",
"e@	c #BCBCBC",
"f@	c #E2E3E1",
"g@	c #E3E4E4",
"h@	c #404040",
"i@	c #EFF0EE",
"j@	c #E2E1E0",
"k@	c #E1E0DF",
"l@	c #E1E0E0",
"m@	c #818181",
"n@	c #D0D0D0",
"o@	c #F0F0EF",
"p@	c #EEEEED",
"q@	c #E1DFE0",
"r@	c #E1E0E1",
"s@	c #ECEDEC",
"t@	c #EFEEEE",
"u@	c #E2DFE0",
"v@	c #E0DFDF",
"w@	c #E0DFE0",
"x@	c #E0E0E0",
"y@	c #E0E1E0",
"z@	c #EFEFF0",
"A@	c #EEEDEC",
"B@	c #EEEEEC",
"C@	c #E0DEE0",
"D@	c #DEDEDD",
"E@	c #DFE0DF",
"F@	c #2F2F2F",
"G@	c #383838",
"H@	c #EFF0EF",
"I@	c #EBEBEA",
"J@	c #DEDEDF",
"K@	c #DFDEDF",
"L@	c #DEDFDF",
"M@	c #E6E7E6",
"N@	c #D9D9D9",
"O@	c #ECECED",
"P@	c #7C7C7C",
"Q@	c #DFDDDE",
"R@	c #E9E8E9",
"S@	c #EAEAEB",
"T@	c #E8E9E9",
"U@	c #DEDDDD",
"V@	c #DCDDDD",
"W@	c #DFDEDE",
"X@	c #E5E5E6",
"Y@	c #6D6D6D",
"Z@	c #2E2D2E",
"`@	c #EAE9EA",
" #	c #EAE8E9",
".#	c #E8E7E8",
"+#	c #E9E9EA",
"@#	c #E4E4E5",
"##	c #E6E6E7",
"$#	c #DDDEDE",
"%#	c #DDDCDC",
"&#	c #DFE0E1",
"*#	c #E2E3E3",
"=#	c #D5D4D5",
"-#	c #080808",
";#	c #9E9D9E",
">#	c #E4E2E3",
",#	c #E8E7E7",
"'#	c #E9EAEA",
")#	c #474747",
"!#	c #EAEAE8",
"~#	c #E9E7E7",
"{#	c #DFE1E0",
"]#	c #E0E0E1",
"^#	c #CFCECE",
"/#	c #E6E5E6",
"(#	c #848484",
"_#	c #D7D7D7",
":#	c #E7E6E5",
"<#	c #E5E3E4",
"[#	c #E8E9E8",
"}#	c #E4E6E5",
"|#	c #E7E6E8",
"1#	c #E7E8E7",
"2#	c #EBEAE9",
"3#	c #B5B6B6",
"4#	c #E4E6E6",
"5#	c #E3E4E3",
"6#	c #E3E5E3",
"7#	c #E4E4E1",
"8#	c #E8E8E6",
"9#	c #E4E2E2",
"0#	c #E5E4E4",
"a#	c #E4E5E5",
"b#	c #9B9B9B",
"c#	c #EEECED",
"d#	c #ECECEE",
"e#	c #ECEEED",
"f#	c #E9EBEA",
"g#	c #EAE9E7",
"h#	c #ECEBE9",
"                                                                                                    ",
"        . + @ # # $ % & * = - = ; > > > > > > > > > > > > ,   @ > > > > & ' ) ! ~ { ] ^             ",
"        / ( _ : : @ @ < [ } | - = > 1 1 1 1 1 1 1 1 1 1 1 _   = 1 1 1 1 1 2 ) , 3 4 5 6             ",
"        7 _ _ 8 9 9 ) @ 0 0 % - = > 1 1 1 1 1 1 1 1 1 1 1 a   1 1 1 1 1 1 = } _ . a b c             ",
"        d e f f f 9 ) @ @ 0 % = > g 1 1 1 1 1 1 1 1 1 1 1 h i 1 1 1 1 1 1 j k @ l m ~ n             ",
"        o p f f f 9 @ @ @ 0 % = > > 1 1 1 1 1 1 1 1 1 1 1 q r 1 1 1 1 1 1 s > | t u a v             ",
"        w , f f f _ 9 @ @ 0 % = > 1 1 1 1 1 1 1 1 1 1 1 1 x y 1 1 1 1 1 1 1 1 z 0 f A 4             ",
"    B     C + f f _ 9 @ @ 0 D = > 1 1 1 1 1 1 1 1 1 1 1 1 E } 1 1 1 1 1 1 1 1 > F G u H             ",
"    { I J   K u f L 9 @ @ $ M M > 1 1 1 1 1 1 1 1 1 1 1 { N 1 1 1 1 1 1 1 1 1 1 O P l Q             ",
"    R S l T U V W X Y @ @ $ M M > 1 1 1 1 1 1 1 1 1 1 1 Z x 1 1 1 1 1 1 1 1 1 1 = @ `  .            ",
"    ..+.@., l #.$.%.&.T @ $ M M > 1 1 1 1 1 1 1 1 1 1 1 *.=.1 1 1 1 1 1 1 1 1 1 = @ f ,             ",
"    -.;.>.f ` _ ,._ E '.).!.M M 1 1 1 1 1 1 1 1 1 1 1 1 ~.{.1 1 1 1 1 1 1 1 1 1 = @ _ l             ",
"    ].u ^.f + 8 /.!.(.q _.:.{ = 1 1 1 1 1 1 1 1 1 1 1 5 <.1 1 1 1 1 1 1 1 1 1 1 [.0 9 l             ",
"    }.p u |.l 9 1.2.3.@ . 4.5.0 1 1 1 1 1 1 1 1 1 1 1 6.7.1 1 1 1 1 1 1 1 1 1 1 8.% : 9.            ",
"    0., u u l 9 a.b.9 @ 0 {.c.d.e.1 1 1 1 1 1 1 1 1 1 f.g.1 1 1 1 1 1 1 1 1 1 1 1 - @ l             ",
"    h.i.+.+.l j.(.k.@ @ 0 M 6 V l.f 1 1 1 1 1 1 1 1 . m.1 1 1 1 1 1 1 1 1 1 1 1 1 | ) l             ",
"    { n.Q +.p o.p.@ @ @ 0 M > q.r.s.W u 1 1 1 1 1 1 Z _.1 1 1 1 1 1 1 1 1 1 1 1 1 | t.l             ",
"    u.n.+.. u v.w.@ @ @ 0 M = > q.x.y.(.E z.1 1 1 1 A.B.1 1 1 1 1 1 1 1 1 1 1 1 C.- @ f             ",
"    X i.. . . :.D.) @ @ 0 M = > 1 1 1 E.F.(.G.H.M u I.J.1 1 1 1 1 1 1 1 1 1 1 1 K.= L.8             ",
"    d M.N.O.P.(.{.9 @ @ 0 M = > 1 1 1 1 1 Q.R.'.S.T.U.V.1 1 1 1 1 1 1 1 1 1 1 1 1 > # :             ",
"    W.  X.Y.Z.  `. +.+++++.+h @+#+e.6 {.{.{.6 T $+%+p.  &+U.*+`.V.=+T 1 1 1 1 1 1 s -+0             ",
"          v.&+;+>+,+'+m.)+I.V !+X.~+                {+        ]+^+2.(.(./+(+J 9 g g = _+            ",
"    :+<+u . . ^.f ) @ 0 & [+g g 1 1 1 1 1 1 1 @   a 1     {+z.H.}+|+1+%+(.2+3+(.4+~+}+!.            ",
"    a . . . . , 5+( ) @ 6+7+[+> 1 1 1 1 1 1 =   8+1 1     1 1 1 1 1 1 1 9 9+0+(+a+]+                ",
"    b+m q.q.. , l _ c+P d+6+& = 1 1 1 1 1 1 e+f+1 1 1     1 1 1 1 1 1 1 1 1 1 1 1 g+h+i+j+          ",
"    k+l+Q.q.q.u , f 9 @ @ @ } % m+= > > 1 9+  f 1 1 1     1 1 1 1 1 1 1 1 1 1 1 1 s > = [           ",
"    ~ { n+q.q.. u l 9 @ @ @ 0 o+p+D = ; 1 q+r+= = = s+    1 1 1 1 1 C.1 > = z > g > t+M u+          ",
"    v+~ u.w+C C x+, l _ @ @ @ @ L._+p+| y+(.z+M M O =     > > > ; O = ; [.= = = = = = % A+          ",
"    k+I B+3 :+Q.q.u , f ) @ @ @ @ L.@ } ~.C+} u+u+2 M     = = = = D+= = = = k M M M M % o+          ",
"    E.E+{.F+G+a q.u p + ( 9 ) @ @ @ @ P.H+{ @ I+u+2 M     = = = M M = = [+% % } } } } 0 J+          ",
"    E.K+I I L+M+q.u N+l O+9 9 ) @ @ . P+Q+@ @ @ } u+%     = = = M M = = M % [ } @ @ 0 R+S+          ",
"    {+5 5 R {.H Q.. T+, U+f f 9 P @ Q+H+{ @ @ @ @ _+0     % p+p+% & M M % } } @ @ @ ) 9 9           ",
"    V+W+E.X+Y+4 Q.x+. T+l l f f Z+q.P+`+9 ) ) ) @ @ @     0  @ @0 6+.@o++@@ L.@ @ : ) f 8           ",
"    ^ {+E.E.@@{.a q.. u l l f f #@$@X.%@&@_ ) ) @ @ @     @ @ @ @ @ @ @ @ ) ) @ ) 9 _ f f           ",
"    *@{+E.E.E.E+{ =@. . u -@, , ;@'.r , l f 9 ) @ @ @ >@  @ @ @ @ @ @ @ @ ) ) : ) ,@_ f '@          ",
"    )@!@d E.E.5 {.a q.. . ~@u u a.{@. . ;.|.f _ Y ]@) Z.  {.) ) @ @ @ @ ^@) ) : ) ,@/@f (@          ",
"    e._@:@/ <@E.5 ~ [@q.. . . V.(.}@. . . ;.i.l |@( 9 &+  e.t t ) ) S+P 1@1@9 9 9 _ f , n.          ",
"    2@3@4@*@/ E.5 F+M+Q.. . . %+3.. . . . . . u >.l f U.  g._ _ 9 9 9 ,@L 5@_ _ _ _ f |.T+          ",
"    6@7@3@8@9@0@E.6 {.H Q.a@b@(.c@. . . . . . . d@n.l B.  e@l l f f e l l l l l l l l u q.          ",
"    f@T @+h+g@{+E.5 6 { a Q.V h@q.q.A q.q.. . . . u u q   q l l f f l , , , ^.|.u , p i@M+          ",
"    j@k@l@T e.{+E.E.E.6 H z+(.m@Q.q.a@Q.a@q.. . . . . n@  *.u u , , u . . . ~@. . . u o@p@          ",
"    l@q@r@T #+1.{+E.E.5 { W (.r s@a M+n Q.q.. . . . . #.  /+. . . . q.C Q.Q.Q.o@q.. . x+t@          ",
"    u@v@w@x@y@e.#.{+<@E.6 x (.y { { { n t@q.z@x+. x+. a     . . . . q.:+l+H H A@B@a@[@C H           ",
"    C@D@h y E@T 4@1./ E.6 P+F@R 6 6 {.{ n+n+b+w+w+w+Q.Q.G@  q.m q.q.H@q.a { { k+k+~ ~ I@L+          ",
"    J@K@L@h h y T e.#.M@N@(.F.5 5 g+6 {.H H O@H G+G+H H P@  y a a a C t@n { { { { { {.6 {.          ",
"    Q@x@K@h h y x@h+*@{+q (.e@E.E.E.5 R@L+{ S@{.6 T@6 {.`+  i+H H H a H { { { { { { 6 E.5           ",
"    U@h V@=+=+h W@_@#.X@Y@Z@3@^ E.E.5 6 I 6 `@ #g+g+.#6 7   f+{.{ { { S@b { {.+#{.{ E.@###          ",
"    V@h $#.+%#h h &#*#=#-#;#>#1.{+E.<@E.,#E.,#,#5 +#}.`@'#)#  E.{ { 6 R@Y+'#!#6 '#T@0@w ~#          ",
"    {#T ]#y h h h ]##+6.(.^#r@4@9@/ /#9@{+{+E.E.5 `@6 `@5 (#  _#{.{ {.6 T@{+{+E.{+:#<#7 [#          ",
"    6@h+T y y y L@]#{#5.)#1.}#/#/#W+|#X@1#6 '#b 2#4 `@H u.W   3#`@{.g+5 Y+1.@#X@4#5#6#7#@@          ",
"    8#7 9#7 !@0#@#a#Z (.          (.(.(.(.(.(.(.(.(.(.(.      b#b+m c#d#e#v+~ L+'#f#I g#h#          ",
"          (.(.(.(.(.                                                (.(.(.(.(.(.(.(.(.(.            ",
"                                                                                                    ",
"                                                                                                    ",
"                                                                                                    ",
"                                                                                                    ",
"                                                                                                    "};
