/* XPM */
static char * loading_xpm[] = {
"41 50 256 2",
"  	c None",
". 	c #0E0602",
"+ 	c #7E7E7E",
"@ 	c #DEBE72",
"# 	c #EADA82",
"$ 	c #3A1E02",
"% 	c #F6EEC2",
"& 	c #563602",
"* 	c #C2923E",
"= 	c #525252",
"- 	c #BA9E6A",
"; 	c #F2F6F5",
"> 	c #D2C092",
", 	c #E6D6B2",
"' 	c #5B5A5A",
") 	c #929294",
"! 	c #A2A2A2",
"~ 	c #9E6202",
"{ 	c #DED6C2",
"] 	c #BEBEB2",
"^ 	c #F3E6C3",
"/ 	c #616263",
"( 	c #CAB082",
"_ 	c #FEFEEA",
": 	c #C2AE8A",
"< 	c #DEC6A2",
"[ 	c #666666",
"} 	c #DEE2E1",
"| 	c #CEBA92",
"1 	c #F0E6CE",
"2 	c #8E563E",
"3 	c #624218",
"4 	c #CAAA62",
"5 	c #6A6A6B",
"6 	c #DACAA2",
"7 	c #E6CA5A",
"8 	c #281402",
"9 	c #C6AA76",
"0 	c #F6FAF7",
"a 	c #623202",
"b 	c #BEB29E",
"c 	c #F6EED6",
"d 	c #6E6E52",
"e 	c #CECE9E",
"f 	c #E6E6DE",
"g 	c #F2EAD2",
"h 	c #A5A6A7",
"i 	c #FAF2DA",
"j 	c #828282",
"k 	c #BA9A5E",
"l 	c #EFE6AB",
"m 	c #32363A",
"n 	c #D6D6D6",
"o 	c #DACAAA",
"p 	c #BEB6AE",
"q 	c #DFC673",
"r 	c #DAC692",
"s 	c #868688",
"t 	c #F2E8B4",
"u 	c #4E2E02",
"v 	c #CED2D2",
"w 	c #DAC6A2",
"x 	c #DED2CE",
"y 	c #EAD68A",
"z 	c #E9DEC6",
"A 	c #707272",
"B 	c #D2B26A",
"C 	c #AAAAAA",
"D 	c #E6D275",
"E 	c #C2BAB6",
"F 	c #260A02",
"G 	c #F2E29E",
"H 	c #3A3E3E",
"I 	c #D6DAD6",
"J 	c #DECAA2",
"K 	c #6E5632",
"L 	c #E2D696",
"M 	c #E3D29A",
"N 	c #2E1602",
"O 	c #CACAC8",
"P 	c #EEF2F1",
"Q 	c #C6A252",
"R 	c #EAEEEB",
"S 	c #3E322A",
"T 	c #B6B6B8",
"U 	c #EADAB6",
"V 	c #C2965E",
"W 	c #D6CEC2",
"X 	c #6E5E3E",
"Y 	c #767A5E",
"Z 	c #EEE2CE",
"` 	c #C2C2C2",
" .	c #EECE76",
"..	c #AFAEAE",
"+.	c #421E02",
"@.	c #767677",
"#.	c #9E9E9E",
"$.	c #8A8E92",
"%.	c #4E4E4E",
"&.	c #FEFEF6",
"*.	c #D2C282",
"=.	c #66461E",
"-.	c #FAF2E0",
";.	c #F6EEDE",
">.	c #DEC68A",
",.	c #E9EAE6",
"'.	c #EADEAB",
").	c #DADADA",
"!.	c #E2D2A2",
"~.	c #E6E2E2",
"{.	c #CECEC6",
"].	c #CE9E62",
"^.	c #DECA7A",
"/.	c #361202",
"(.	c #CEB286",
"_.	c #FAFAEE",
":.	c #CEC6C0",
"<.	c #E2D6A6",
"[.	c #FAF6EE",
"}.	c #E2DEDD",
"|.	c #D6BA6E",
"1.	c #EAE6E7",
"2.	c #E0BE78",
"3.	c #F2EEE2",
"4.	c #F2F2EE",
"5.	c #DADEDA",
"6.	c #E4CA9C",
"7.	c #4A2602",
"8.	c #D4B462",
"9.	c #FAFEFC",
"0.	c #EFEAE9",
"a.	c #DAD2C2",
"b.	c #C29652",
"c.	c #361602",
"d.	c #BEA67A",
"e.	c #CAA664",
"f.	c #D0B282",
"g.	c #DFCEAB",
"h.	c #D6BE9A",
"i.	c #E6D6AC",
"j.	c #EEE2BA",
"k.	c #E6DED6",
"l.	c #BEB6B6",
"m.	c #DAC686",
"n.	c #E2CE95",
"o.	c #424242",
"p.	c #D2AE6A",
"q.	c #F8E6A0",
"r.	c #E2E6E3",
"s.	c #C39E5D",
"t.	c #FAFAFA",
"u.	c #F6F6F2",
"v.	c #C6BEB6",
"w.	c #EED296",
"x.	c #F2DEB7",
"y.	c #7A7A7A",
"z.	c #EAD69E",
"A.	c #EED286",
"B.	c #B2B2B2",
"C.	c #D2B68A",
"D.	c #624E1E",
"E.	c #DED2AE",
"F.	c #B6AEA2",
"G.	c #E6E6E2",
"H.	c #DAC08C",
"I.	c #C5C6C7",
"J.	c #D0B276",
"K.	c #6E4E22",
"L.	c #EEEEEA",
"M.	c #CECAC2",
"N.	c #5E5E5D",
"O.	c #EAEAEA",
"P.	c #DABE7A",
"Q.	c #E6CA76",
"R.	c #F6F2F3",
"S.	c #FEFEFA",
"T.	c #F5EAC3",
"U.	c #2A1A0E",
"V.	c #BABABA",
"W.	c #D8BE84",
"X.	c #C4A263",
"Y.	c #F0E2AC",
"Z.	c #E2E2E2",
"`.	c #FEFAFA",
" +	c #E6D2AA",
".+	c #FAF2D2",
"++	c #CEAA7A",
"@+	c #868A8C",
"#+	c #FAF6F7",
"$+	c #969695",
"%+	c #F3EACD",
"&+	c #E2CE80",
"*+	c #E9DAA5",
"=+	c #DEBA6E",
"-+	c #C2964A",
";+	c #FEFEFE",
">+	c #D2CECA",
",+	c #DEC67C",
"'+	c #565656",
")+	c #D3B681",
"!+	c #464647",
"~+	c #DAC283",
"{+	c #8E8E91",
"]+	c #BAB2AB",
"^+	c #D8CA9E",
"/+	c #FAFAFE",
"(+	c #E6E6EA",
"_+	c #C29E6E",
":+	c #D6BA8E",
"<+	c #F6E6BA",
"[+	c #563202",
"}+	c #D6D2D2",
"|+	c #C6A66E",
"1+	c #EEDAA2",
"2+	c #CECECE",
"3+	c #E4CE9C",
"4+	c #361A02",
"5+	c #E8DAAC",
"6+	c #F1E6BB",
"7+	c #D7C293",
"8+	c #BEBAAE",
"9+	c #EAEAEE",
"0+	c #E3D2B3",
"a+	c #B6B2AB",
"b+	c #E6D6BE",
"c+	c #DECAAE",
"d+	c #DAD2CE",
"e+	c #E6CA82",
"f+	c #EEDEB2",
"g+	c #E1CA91",
"h+	c #DEC272",
"i+	c #BEBAB5",
"j+	c #C9C2B6",
"k+	c #EADEBA",
"l+	c #C8AE78",
"m+	c #BE9E64",
"n+	c #D4B66C",
"o+	c #DEC27E",
"p+	c #4A2A02",
"q+	c #D8C29C",
"r+	c #D2BA86",
"s+	c #D2B676",
"t+	c #8A8A8D",
"u+	c #E2DEE2",
"v+	c #F2F2F2",
"w+	c #DEDEE2",
"x+	c #F6F6F6",
"y+	c #E6E6E6",
"z+	c #EEEEEE",
"A+	c #CECAC6",
"B+	c #E6E2E6",
"C+	c #E2CEB2",
"D+	c #D2D2D0",
"E+	c #2A0A02",
"F+	c #E2CA7C",
"G+	c #DEDEDE",
"V.V.V.V.V.V.V.V.V.V.V.V.V.V.V.V.V.V.V.V.V.V.V.V.V.V.V.V.V.V.V.V.V.V.V.V.V.V.V.V.! ",
"T z+v+x+t.t.0 t.t.t.t.t.t.`.;+;+;+;+;+;+;+;+;+;+;+;+;+;+;+;+;+;+t.x+x+z+O.O.y+r.+ ",
"V.y+x+; x+#+x+t.t.`.t.;+9./+;+;+;+;+;+;+;+;+;+;+;+;+;+;+;+;+;+;+;+t.x+v+z+9+1.y+y.",
"T G.x+R.x+x+x+x+0 0 t./+`.S.;+;+;+;+;+;+;+;+;+;+;+;+;+;+;+;+;+;+;+;+t.x+z+L.O.L.+ ",
"T y+u.; ; x+x+#+t.x+t.9.;+;+;+;+;+;+;+;+;+;+;+;+;+;+;+;+;+;+;+;+;+;+9.t.v+z+9+O.y.",
"V.O.v+R.R.v+x+x+x+t.x+t.;+;+;+;+;+;+;+;+;+;+;+;+;+;+;+;+;+;+;+;+;+;+;+t.x+v+L.L.+ ",
"T (+v+; x+v+x+x+x+t.t.t.t.;+;+;+;+;+;+;+;+;+;+;+;+;+;+;+;+;+;+;+;+;+;+;+0 ; z+O.y.",
"V.,.P v+v+x+x+x+t.x+. $ $ 4+p+K.D.Y K 3 =.& u 4+$ $ $ $ $ $ 4+%.;+;+;+;+`.x+v+9++ ",
"V.L.v+v+v+v+x+x+t.#+) 8 N N a 2 ~ ].e e ].~ ~ 2 a a 8 N N N U.G+;+;+;+;+`.#+u.z+y.",
"l.1.z+x+x+; x+x+x+0 ).S /.F E+4+[+X d =.7.p+F F F E+E+F F 4+N.;+;+;+;+;+;+x+v+v++ ",
"V.O.z+v+v+R.x+x+#+x+0 @+/ $.{+$.t+@+s t+@+$.{+{+$.{+{+{+$.m Z.;+;+;+;+;+;+t.v+v+y.",
"T L.v+v+R.v+v+t.0 t.#++ T ;+;+;+;+;+;+;+;+;+;+;+;+;+;+;+;+' D+;+;+;+;+;+;+x+x+v++ ",
"T R v+v+x+x+x+#+x+t.t.+ C ;+;+;+;+;+;+;+;+;+;+;+;+;+;+;+;+= n ;+;+;+;+;+;+t.x+v+y.",
"V.0.v+v+v+v+x+0 t.u.t.j ..;+;+;+i %+^ x.*+j.Y.%+;+;+;+;+;+' D+;+;+;+;+;+;+t.x+v++ ",
"T 0.v+P v+v+x+x+t.x+0 ) h g ^ T.Y.z.M 6.>.6.3+i.1 0.;+;+; 5 G+;+;+;+;+;+;+;+t.v+y.",
"V.R v+z+z+v+x+t.x+t.#+I.A t.j.'.A.e+o+@ 2.2.P.H.< 0+U z Z.A O.;+;+;+;+;+;+/+x+v++ ",
"T z+R.v+v+v+R.t.x+t.#+4./ n j.F+D q h+q P.|.n+s+f.C.| C.b ! ;+;+;+;+;+;+;+/+x+v+y.",
"V.z+; z+z+z+; x+t.x+t.`.#.j ;+5+*.&+D  .h+|.B e.|+|+9 o 5 ).;+;+;+;+;+;+;+S.0 v++ ",
"T z+x+v+v+z+v+x+t.0 0 t.R.!+2+;+*+*.,+D h+n+e.b.- - 1 ) s ;+;+;+;+;+;+;+;+;+t.; y.",
"V.z+v+v+z+v+v+v+x+#+t.;+9.T '+G+&.3+~+q Q.B |+k s.g T = Z.;+;+;+;+;+;+;+;+;+t.#++ ",
"T z+z+v+z+v+; ; x+#+x+t.S.;+$+' } _ ~+q+@ 9 m+V -.V.o.D+;+;+;+;+;+;+;+;+;+;+9.x+y.",
"V.z+v+v+v+z+v+R.x+x+t.t.t.S.;+{+N.2+.+~+=+X.b.^ h = I.;+;+;+;+;+;+;+;+;+;+;+`.t.+ ",
"l.z+z+z+4.z+v+; x+x+#+0 t.t.S.;+..A v <+8.*  +h @.).;+;+;+;+;+;+;+;+;+;+;+;+;+t.y.",
"V.0.0.z+z+z+4.v+; x+0 #+t.t./+;+;+I.H }.2.6...!+z+;+;+;+;+;+;+;+;+;+;+;+;+;+;+t.+ ",
"V.R 0.z+v+z+z+z+v+x+0 x+t.t.t./+`.`.! y.7 (+[ I ;+;+;+;+;+;+;+;+;+;+;+;+;+9.`.t.y.",
"T z+R 9+z+z+z+v+v+R.R.t.x+x+#+t.0 9.x+o.* I.5 ;+;+;+;+;+;+;+;+;+;+;+;+;+;+;+9.t.+ ",
"V.9+O.9+z+z+z+v+P v+v+x+t.0 0 t.#+v+@.$.7 5.[ B.;+;+;+;+`.;+;+;+;+;+S.9.`./+t.#+y.",
"T O.O.O.9+R z+z+v+v+; x+x+x+#+x+P h '+v+* #+T !+n ;+;+t.9.;+;+t.t.t.t.t.t.t.t.0 + ",
"T ,.,.O.O.O.z+z+v+z+x+; x+x+#+z+y.y.z+;+7 ;+t.` / C ;+`./+/+;+`.t.t.t.0 t.0 x+x+y.",
"V.(+(+,.O.O.O.z+v+v+v+v+R.; 9+' s z+;+t.* [.;+0 v.' ) 9.S.S.S.9.t.t.#+#+x+#+x+x++ ",
"l.y+(+y+y+O.0.z+v+z+v+; v+R [ j x+;+&.M Q e.[.;+t.O = h t.#+#+t.x+0 0 t.x+t.; ; y.",
"V.,.y+1.O.y+9+9+z+v+4.v+v+{+y.v+;+;+f+^.h+b.f.S.;+x+2+'+I.0 0 0 #+x+#+x+x+v+R.R.+ ",
"T G.y+y+(+y+O.O.z+z+z+v+).' z+;+;+%+r 6 ,+( V 6.;+;+x+B.y.z+#+0 #+x+x+0 x+x+; R.y.",
"V.Z.Z.y+,.,.O.O.L.v+v+z+$+..t.;+-.3+q+L &+(.: m+0+;+t.Z.t+D+/+#+0 0 t.x+x+v+R.; + ",
"V.y+u+Z.y+y+,.(+O.z+z+O.j G+;+&.5+!.M # F+p.9 d.X.U ;+;+C h v+x+x+x+x+x+x+; v+v+y.",
"T r.} Z.Z.G.(+,.9+z+z+` h O.9.1 <.z.G y e+s+J.(.l+C.Z ;+D+#.(+x+x+; x+x+x+R.4.P + ",
"T G.Z.Z.Z.r.(+,.,.0.z+B.I.x+g i.l l G w.n.> )+C.C.:+f.3.z+! G+R.R.v+v+v+v+R.v+z+y.",
"V.Z.Z.Z.Z.B+y+y+(+,.9+a+D+`.U *+l l Y.z.n.7+7+> > q+h.g.; ! G+v+v+v+v+v+v+v+z+L.+ ",
"V.Z.Z.Z.} Z.y+1.(+(+,.V.>+%+'.6+t Y.5+*+M w 6 ^+r w o q+z h } z+v+v+z+v+z+v+z+L.y.",
"T Z.G+}.Z.Z.y+r.,.,.,.` n ^ 1 t % T.j.f+U i.C+g.E.g.C+E.0+F.B+z+z+z+v+z+v+z+P z++ ",
"l.}.w+}.Z.G+y+Z.r.(+G.:.T 8+8+8+8+8+] i+p p T F.F.]+]+p T C Z.0.9+O.z+z+4.z+z+O.y.",
"V.Z.G+G+G+} w+Z.B+G.} V.i+p i+E j+{.D+:.j+j+l.i+E E i+p E ] ` R O.z+O.O.9+0.9+O.+ ",
"T } G+G+G+G+Z.Z.Z.~.}+:.O :.>+d+{ k.f f k.{ { x d+W W :.:.:.:.u+O.0.O.O.R O.O.O.y.",
"V.}.w+G+G+G+G+} Z.r.O O :.O M.>+A+>+D+A+{.A+A+O A+I.O O A+O O D+O.R L.R 9+,.y+y++ ",
"T }.G+G+G+G+G+G+Z.Z.G.r.y+y+y+,.O.O.R 9+O.1.9+O.0.O.O.9+O.O.9+O.9+O.1.O.9+1.y+y+y.",
"V.5.G+G+G+).G+G+w+Z.Z.y+y+1.,.1.,.,.1.1.O.O.y+1.,.1.O.O.z+O.,.,.O.O.O.O.,.,.Z.y++ ",
"V.Z.G+G+}.G+G+G+Z.Z.u+~.r.y+,.(+1.,.,.1.y+O.9+9+9+O.O.O.O.O.(+,.y+y+y+y+y+B+~.y+y.",
"T Z.Z.Z.} }.}.} w+} Z.w+B+Z.y+y+r.y+(+y+1.y+1.,.O.(+O.1.O.(+O.(+Z.r.y+r.Z.r.r.,.+ ",
"V.,.Z.Z.Z.r.~.y+B+r.y+r.(+B+y+(+B+y+O.,.9+O.9+O.L.R R z+z+0.z+z+z+9+0.9+O.O.O.,.y.",
"! y.y.y.y.y.y.y.+ y.y.y.y.+ y.y.+ y.y.+ + + y.y.y.y.y.y.+ + y.+ y.+ y.y.+ y.y.y.+ "};
