/* XPM */
static char * loading_xpm[] = {
"41 50 709 2",
"  	c None",
". 	c #B8B8B8",
"+ 	c #A3A3A3",
"@ 	c #F0F0F0",
"# 	c #F3F4F4",
"$ 	c #F8F8F8",
"% 	c #FAFBFA",
"& 	c #F9FAF9",
"* 	c #FBFBFB",
"= 	c #FCFCFB",
"- 	c #FCFDFD",
"; 	c #FDFDFD",
"> 	c #FCFCFD",
", 	c #FEFDFE",
"' 	c #FEFEFE",
") 	c #F9F8F7",
"! 	c #F7F7F7",
"~ 	c #EEF0EF",
"{ 	c #EBECEB",
"] 	c #EBEBEB",
"^ 	c #E7E7E8",
"/ 	c #E5E6E6",
"( 	c #7B7B7B",
"_ 	c #E6E6E5",
": 	c #F5F6F6",
"< 	c #F5F5F5",
"[ 	c #F7F8F7",
"} 	c #F9F9FA",
"| 	c #FBFAFA",
"1 	c #FAFAFA",
"2 	c #FBFBFC",
"3 	c #FFFFFF",
"4 	c #FCFBFB",
"5 	c #F2F2F2",
"6 	c #EDEDEE",
"7 	c #EBEBEC",
"8 	c #E8E8E8",
"9 	c #E9E9E9",
"0 	c #E5E4E4",
"a 	c #F5F6F5",
"b 	c #F6F6F6",
"c 	c #F9F9F9",
"d 	c #EDEDED",
"e 	c #E9EAE9",
"f 	c #EBECEA",
"g 	c #E7E6E6",
"h 	c #F4F3F3",
"i 	c #F4F4F4",
"j 	c #FFFFFE",
"k 	c #FEFEFF",
"l 	c #FCFDFC",
"m 	c #F3F3F3",
"n 	c #EFEEEF",
"o 	c #EDECEC",
"p 	c #E9E9EB",
"q 	c #F3F2F2",
"r 	c #FEFFFE",
"s 	c #F7F6F6",
"t 	c #F1F1F1",
"u 	c #ECECEB",
"v 	c #E8E7E8",
"w 	c #FEFDFD",
"x 	c #F0EFF0",
"y 	c #EAEBE8",
"z 	c #F1F2F2",
"A 	c #0F0700",
"B 	c #3B1D00",
"C 	c #371B00",
"D 	c #351900",
"E 	c #482A00",
"F 	c #6C4C22",
"G 	c #614C1F",
"H 	c #75785F",
"I 	c #6E5633",
"J 	c #624214",
"K 	c #65471D",
"L 	c #573600",
"M 	c #4E2F00",
"N 	c #391C00",
"O 	c #321900",
"P 	c #4C4C4C",
"Q 	c #FBFCFA",
"R 	c #F6F7F5",
"S 	c #ECECEC",
"T 	c #F1F1F0",
"U 	c #F6F5F5",
"V 	c #959492",
"W 	c #261300",
"X 	c #2E1700",
"Y 	c #2B1500",
"Z 	c #633100",
"` 	c #8C543D",
" .	c #9C6300",
"..	c #CE9C63",
"+.	c #CECE9C",
"@.	c #2C1600",
"#.	c #281B0E",
"$.	c #DDDDDD",
"%.	c #FDFCFC",
"&.	c #F8F7F7",
"*.	c #F0F0F1",
"=.	c #E9E9E8",
"-.	c #F1F0F1",
";.	c #F6F6F7",
">.	c #D7D8D7",
",.	c #3E3228",
"'.	c #351300",
").	c #290B00",
"!.	c #260800",
"~.	c #401D00",
"{.	c #573200",
"].	c #6C5E3F",
"^.	c #6D6F53",
"/.	c #614319",
"(.	c #4A2600",
"_.	c #492600",
":.	c #280A00",
"<.	c #290A00",
"[.	c #351700",
"}.	c #5F5C5B",
"|.	c #F4F4F3",
"1.	c #F1F1F2",
"2.	c #ECEAE8",
"3.	c #F1F0F0",
"4.	c #F3F2F1",
"5.	c #F6F6F8",
"6.	c #888989",
"7.	c #5E6164",
"8.	c #8C8F91",
"9.	c #8A8D91",
"0.	c #888B90",
"a.	c #86888A",
"b.	c #868689",
"c.	c #878A8E",
"d.	c #898C91",
"e.	c #333638",
"f.	c #E0E0E0",
"g.	c #F2F2F3",
"h.	c #F8F8F7",
"i.	c #7F7F7F",
"j.	c #5D5D5D",
"k.	c #D4D4D4",
"l.	c #EBEDEB",
"m.	c #F2F3F2",
"n.	c #F8F7F6",
"o.	c #7E7E7E",
"p.	c #A8A8A8",
"q.	c #515151",
"r.	c #FDFDFE",
"s.	c #EBEAEC",
"t.	c #F2F2F1",
"u.	c #808080",
"v.	c #AEAEAE",
"w.	c #F8F0D9",
"x.	c #F5EACD",
"y.	c #F2E4C3",
"z.	c #F1DDB6",
"A.	c #EAD9AB",
"B.	c #F0DFB6",
"C.	c #F1DFB8",
"D.	c #F3E9CE",
"E.	c #5B5B5B",
"F.	c #FEFEFD",
"G.	c #F4F3F4",
"H.	c #EDECED",
"I.	c #959595",
"J.	c #F1E8D1",
"K.	c #F0E5C2",
"L.	c #F4EBC1",
"M.	c #F1E0AF",
"N.	c #ECD8A1",
"O.	c #E6D098",
"P.	c #E2C991",
"Q.	c #E1C88D",
"R.	c #E3CB90",
"S.	c #E3CD97",
"T.	c #E7D6AD",
"U.	c #EEE3CE",
"V.	c #F2E9E6",
"W.	c #686868",
"X.	c #DBDBDB",
"Y.	c #EDECEB",
"Z.	c #F3F3F2",
"`.	c #C3C3C3",
" +	c #747474",
".+	c #ECE0BD",
"++	c #EBDCA5",
"@+	c #EDD185",
"#+	c #E3C97F",
"$+	c #DDC37C",
"%+	c #DCBF7B",
"&+	c #DBBF7A",
"*+	c #DABE7B",
"=+	c #D9BE80",
"-+	c #DAC28E",
";+	c #DEC9A1",
">+	c #E1D0B2",
",+	c #E5D7BD",
"'+	c #E9DCC5",
")+	c #E3E3E3",
"!+	c #737373",
"~+	c #F2F3F3",
"{+	c #626262",
"]+	c #D8D8D8",
"^+	c #F1E4BF",
"/+	c #DFCA7B",
"(+	c #E6D173",
"_+	c #DEC571",
":+	c #DFC474",
"<+	c #DEC372",
"[+	c #DCBE71",
"}+	c #D7B96F",
"|+	c #D3B46F",
"1+	c #D0B373",
"2+	c #D0B57E",
"3+	c #D1B788",
"4+	c #D3BC91",
"5+	c #CDB893",
"6+	c #BDB29D",
"7+	c #FCFCFC",
"8+	c #F5F7F7",
"9+	c #EDEEEE",
"0+	c #9C9C9C",
"a+	c #828282",
"b+	c #EEDEB0",
"c+	c #D1C081",
"d+	c #E0CF7F",
"e+	c #E6D175",
"f+	c #EDCE74",
"g+	c #E2C473",
"h+	c #D7BB6E",
"i+	c #D1B167",
"j+	c #C9A762",
"k+	c #C4A363",
"l+	c #C4A76E",
"m+	c #C5A876",
"n+	c #D9C9AA",
"o+	c #6A6A6C",
"p+	c #D9D9D9",
"q+	c #FFFEFF",
"r+	c #474747",
"s+	c #CCCDCE",
"t+	c #EAD9A6",
"u+	c #D8C182",
"v+	c #DFC97B",
"w+	c #DEC371",
"x+	c #D4B66B",
"y+	c #C9A860",
"z+	c #C49C58",
"A+	c #BE9D60",
"B+	c #BB9D68",
"C+	c #F3E6CF",
"D+	c #919294",
"E+	c #848484",
"F+	c #FEFFFF",
"G+	c #F8F9F9",
"H+	c #EEEDED",
"I+	c #F4F2F2",
"J+	c #B3B3B3",
"K+	c #565656",
"L+	c #DEDFE0",
"M+	c #FFFFF7",
"N+	c #E2CF95",
"O+	c #D9C182",
"P+	c #DCC47A",
"Q+	c #E5CA74",
"R+	c #D1B36B",
"S+	c #C3A262",
"T+	c #BA985C",
"U+	c #C29C5C",
"V+	c #F5EDDF",
"W+	c #B4B6BA",
"X+	c #525252",
"Y+	c #E4E4E4",
"Z+	c #EEEFEF",
"`+	c #F0F1F1",
" @	c #FDFDFC",
".@	c #949494",
"+@	c #585959",
"@@	c #E0E1E5",
"#@	c #FFFDEA",
"$@	c #DCC58A",
"%@	c #D6BF98",
"&@	c #E1BC74",
"*@	c #CDAB78",
"=@	c #C19F6D",
"-@	c #C29D5D",
";@	c #FAF0DD",
">@	c #B5B8BE",
",@	c #414040",
"'@	c #D3D3D3",
")@	c #FBFCFB",
"!@	c #EEEEEE",
"~@	c #F3F4F3",
"{@	c #FAFAF9",
"]@	c #FBFBFA",
"^@	c #8F8F8F",
"/@	c #5F5F5F",
"(@	c #CDCED2",
"_@	c #FBF3D1",
":@	c #DBC387",
"<@	c #DEBA6E",
"[@	c #C5A363",
"}@	c #C39553",
"|@	c #F5E5C4",
"1@	c #A1A6AA",
"2@	c #545455",
"3@	c #C8C8C8",
"4@	c #F9FAFA",
"5@	c #EFEFEF",
"6@	c #F6F7F7",
"7@	c #F8F9F8",
"8@	c #B0B0B0",
"9@	c #6F7071",
"0@	c #D0D1D3",
"a@	c #F5E7BA",
"b@	c #D4B55C",
"c@	c #C0913F",
"d@	c #E5D0AA",
"e@	c #A6A6A6",
"f@	c #777778",
"g@	c #FFFEFE",
"h@	c #FDFCFD",
"i@	c #C5C5C5",
"j@	c #3B3C3F",
"k@	c #E1DFD9",
"l@	c #DBBE8B",
"m@	c #E4CA9A",
"n@	c #454648",
"o@	c #ECEDEC",
"p@	c #FAF9F9",
"q@	c #FAFBFB",
"r@	c #FBFCFC",
"s@	c #78797A",
"t@	c #E5CA59",
"u@	c #E4E5E7",
"v@	c #646465",
"w@	c #FDFEFD",
"x@	c #FBFAFB",
"y@	c #EEEFEE",
"z@	c #ECEDED",
"A@	c #EEEEEF",
"B@	c #EFF0F0",
"C@	c #414141",
"D@	c #C7C7C8",
"E@	c #6A6A6A",
"F@	c #FDFEFE",
"G@	c #F9FBF9",
"H@	c #EAEAE9",
"I@	c #EAECEC",
"J@	c #757575",
"K@	c #B1B1B1",
"L@	c #FCFBFC",
"M@	c #EAE9E9",
"N@	c #EAEAEA",
"O@	c #EAEBEB",
"P@	c #EBECEC",
"Q@	c #595959",
"R@	c #B7B7B7",
"S@	c #D5D5D5",
"T@	c #F9F8F9",
"U@	c #EAE9E8",
"V@	c #EBEAEA",
"W@	c #EDEDEC",
"X@	c #F2F1F2",
"Y@	c #F5F6F4",
"Z@	c #7D7D7D",
"`@	c #7A7A7A",
" #	c #616161",
".#	c #ADADAD",
"+#	c #F6F8F8",
"@#	c #F7F8F8",
"##	c #E7E7E7",
"$#	c #F1F2F1",
"%#	c #F2F4F3",
"&#	c #5C5B5B",
"*#	c #838383",
"=#	c #FDFAF5",
"-#	c #FAF5EE",
";#	c #C1C1C1",
">#	c #919292",
",#	c #E6E6E8",
"'#	c #E7E6E7",
")#	c #E8E9E7",
"!#	c #E8E8E9",
"~#	c #666666",
"{#	c #FFFDF7",
"]#	c #E9D49D",
"^#	c #C5A150",
"/#	c #C9A565",
"(#	c #FAF6EE",
"_#	c #CCCCCC",
":#	c #545454",
"<#	c #FAF9FA",
"[#	c #F9F9F8",
"}#	c #E6E7E7",
"|#	c #E6E6E6",
"1#	c #E8E8E7",
"2#	c #8E8E8E",
"3#	c #797979",
"4#	c #EDDEB1",
"5#	c #DBC784",
"6#	c #DEC172",
"7#	c #C3974A",
"8#	c #D4B482",
"9#	c #FFFEF7",
"0#	c #CDCDCD",
"a#	c #EFEFED",
"b#	c #DADCDA",
"c#	c #EEEEED",
"d#	c #F3EBCC",
"e#	c #DFC893",
"f#	c #DACAA2",
"g#	c #DDC67E",
"h#	c #C9AF81",
"i#	c #C1945C",
"j#	c #E1CB9C",
"k#	c #B0AFB0",
"l#	c #F6F5F6",
"m#	c #F6F4F4",
"n#	c #E4E4E5",
"o#	c #E4E3E4",
"p#	c #E6E5E5",
"q#	c #969696",
"r#	c #F8F8F9",
"s#	c #F8F2E3",
"t#	c #E1CE99",
"u#	c #D6C29E",
"v#	c #E3D794",
"w#	c #E2CD80",
"x#	c #CEB384",
"y#	c #C3AD8A",
"z#	c #BF9C65",
"A#	c #E3D0B1",
"B#	c #8B8A8A",
"C#	c #D1D1D1",
"D#	c #F8F7F8",
"E#	c #F5F4F5",
"F#	c #F5F4F4",
"G#	c #E1E1E2",
"H#	c #E4E4E3",
"I#	c #E7E7E6",
"J#	c #DFDFDF",
"K#	c #FBFCFD",
"L#	c #FDFCF5",
"M#	c #E7D9AD",
"N#	c #E2D19F",
"O#	c #E2D395",
"P#	c #EADA81",
"Q#	c #E2CB7A",
"R#	c #D0AD6A",
"S#	c #C7AD76",
"T#	c #BEA67B",
"U#	c #C3A166",
"V#	c #E7DCC4",
"W#	c #AAAAAA",
"X#	c #F7F7F6",
"Y#	c #E4E6E3",
"Z#	c #E1E2E1",
"`#	c #E3E3E2",
" $	c #E5E5E4",
".$	c #EAEAEB",
"+$	c #FDFDFB",
"@$	c #F1E5C3",
"#$	c #E0D4A6",
"$$	c #E5D8A0",
"%$	c #F0E39E",
"&$	c #E9D488",
"*$	c #E4C982",
"=$	c #D2B676",
"-$	c #CEB178",
";$	c #CAB282",
">$	c #C8AD7B",
",$	c #D0B382",
"'$	c #EEE4CF",
")$	c #FDFCFB",
"!$	c #D0D0D1",
"~$	c #9D9D9D",
"{$	c #F6F6F5",
"]$	c #E2E1E1",
"^$	c #E2E3E2",
"/$	c #E4E5E4",
"($	c #B2B2B2",
"_$	c #C7C7C7",
":$	c #F7F9FB",
"<$	c #F4ECD6",
"[$	c #E6D7A8",
"}$	c #ECE4A8",
"|$	c #F4E5A2",
"1$	c #F9E49F",
"2$	c #ECD197",
"3$	c #E3CE90",
"4$	c #D5BD87",
"5$	c #D3B986",
"6$	c #D2B783",
"7$	c #D3B887",
"8$	c #D5BA8E",
"9$	c #CDB280",
"0$	c #F3EEE3",
"a$	c #EEF0F3",
"b$	c #A0A09F",
"c$	c #DEDEDE",
"d$	c #E3E4E2",
"e$	c #E1E1E1",
"f$	c #E1E1E0",
"g$	c #E2E2E1",
"h$	c #E3E4E4",
"i$	c #B3B2B3",
"j$	c #CFD0D2",
"k$	c #FBF8EE",
"l$	c #E9DBB5",
"m$	c #EBDCAC",
"n$	c #F2E7AD",
"o$	c #EDE4AA",
"p$	c #EEE0A8",
"q$	c #E9D59D",
"r$	c #E4CF9C",
"s$	c #D9C493",
"t$	c #D6C192",
"u$	c #D2C193",
"v$	c #D5C091",
"w$	c #D9C099",
"x$	c #D8C097",
"y$	c #E0CFB2",
"z$	c #F3F3F4",
"A$	c #A3A3A4",
"B$	c #EFF0EE",
"C$	c #E3E2E1",
"D$	c #E1E0DF",
"E$	c #E1E0E0",
"F$	c #BABAB9",
"G$	c #D2D0CC",
"H$	c #F1E8CA",
"I$	c #E9DCB9",
"J$	c #EEE7BB",
"K$	c #F1EBB6",
"L$	c #F0E5B3",
"M$	c #E8DCAF",
"N$	c #EADAA5",
"O$	c #E2D0A2",
"P$	c #DCC7A0",
"Q$	c #DDC7A0",
"R$	c #D9CB9D",
"S$	c #D6C89D",
"T$	c #D9C4A3",
"U$	c #DCC9AC",
"V$	c #D8C4A0",
"W$	c #EADDC6",
"X$	c #A9A9A8",
"Y$	c #F0F1F0",
"Z$	c #F0F0EF",
"`$	c #E1DFE0",
" %	c #E1E0E1",
".%	c #E2E2E2",
"+%	c #E5E5E5",
"@%	c #C3C4C4",
"#%	c #D9D3C0",
"$%	c #F4E8C6",
"%%	c #F1E7C2",
"&%	c #F1E9C0",
"*%	c #F4ECC0",
"=%	c #F2E7BA",
"-%	c #EFE1B8",
";%	c #ECE0B7",
">%	c #EBDCB9",
",%	c #E5D3B3",
"'%	c #E1D1B0",
")%	c #DDCEAA",
"!%	c #DDCFAB",
"~%	c #E1CEAE",
"{%	c #E2D0B4",
"]%	c #DDD0AE",
"^%	c #E4D4B0",
"/%	c #B4AEA3",
"(%	c #EFEEEE",
"_%	c #E3E0E1",
":%	c #E0DFDF",
"<%	c #E0DFE0",
"[%	c #E0E1E0",
"}%	c #C9C8C8",
"|%	c #B6B3AC",
"1%	c #BCB8AE",
"2%	c #BDB9AD",
"3%	c #BDB9AC",
"4%	c #BEBBAE",
"5%	c #BFBBB0",
"6%	c #BFBCB2",
"7%	c #BDB9AF",
"8%	c #BDB8AE",
"9%	c #BCB6AD",
"0%	c #B8B3AC",
"a%	c #B6B1A9",
"b%	c #B8B1A9",
"c%	c #B9B3A9",
"d%	c #B8B3AA",
"e%	c #B7B3AA",
"f%	c #AFACA8",
"g%	c #E0E1E1",
"h%	c #EEEDEC",
"i%	c #EEEEEC",
"j%	c #EFEFEE",
"k%	c #E1DFE1",
"l%	c #DEDEDD",
"m%	c #DFE0DF",
"n%	c #BDBAB7",
"o%	c #C1BBB5",
"p%	c #C0B9B4",
"q%	c #BFB7B5",
"r%	c #C5BCB4",
"s%	c #CBC2B7",
"t%	c #D0CDC8",
"u%	c #D0D1CC",
"v%	c #CEC7BE",
"w%	c #C8C0B4",
"x%	c #C7C0B4",
"y%	c #BFB9B5",
"z%	c #C1B9B5",
"A%	c #C1BAB5",
"B%	c #C1B9B4",
"C%	c #C0B9B5",
"D%	c #C2BBB4",
"E%	c #C0C0C0",
"F%	c #ECEBEB",
"G%	c #EBEBEA",
"H%	c #DFDFE0",
"I%	c #DFDEDF",
"J%	c #DEDFDF",
"K%	c #D4D3D2",
"L%	c #CDC8C4",
"M%	c #CCC8C3",
"N%	c #CCC7C3",
"O%	c #D4CCC3",
"P%	c #DBD3CE",
"Q%	c #DED5C3",
"R%	c #E7DED5",
"S%	c #E7E7DE",
"T%	c #E7DED4",
"U%	c #DED4C3",
"V%	c #DCD2CE",
"W%	c #DCD3CF",
"X%	c #D4CDC3",
"Y%	c #CCC9C3",
"Z%	c #CDC9C3",
"`%	c #DFDEDE",
" &	c #E0DEDF",
".&	c #CCC8C6",
"+&	c #CCC8C7",
"@&	c #CCC9C7",
"#&	c #CDCAC7",
"$&	c #D1CECA",
"%&	c #D2D1CE",
"&&	c #D0D1CE",
"*&	c #CFCCC9",
"=&	c #D0CDC9",
"-&	c #CECCC7",
";&	c #CECAC6",
">&	c #CBC9C7",
",&	c #CCC9C6",
"'&	c #CAC8C6",
")&	c #D2D2D2",
"!&	c #DCDDDD",
"~&	c #E5E5E6",
"{&	c #E9E8E9",
"]&	c #E8E9E9",
"^&	c #E9E9EA",
"/&	c #E6E6E7",
"(&	c #DDDEDE",
"_&	c #DCDCDC",
":&	c #DDDCDC",
"<&	c #DFE0E1",
"[&	c #E2E3E3",
"}&	c #E3E4E3",
"|&	c #EAE9EA",
"1&	c #EAE8E9",
"2&	c #E9E8E8",
"3&	c #E9EAEA",
"4&	c #EAEAE8",
"5&	c #E5E4E5",
"6&	c #E9E7E7",
"7&	c #E0E2E1",
"8&	c #E0E0E1",
"9&	c #E2E1E2",
"0&	c #E4E2E3",
"a&	c #E8E7E7",
"b&	c #EAE9EB",
"c&	c #E7E6E5",
"d&	c #E5E3E4",
"e&	c #E4E3E3",
"f&	c #E8E9E8",
"g&	c #DFE1E0",
"h&	c #E6E5E6",
"i&	c #E4E6E6",
"j&	c #E3E5E3",
"k&	c #E4E4E1",
"l&	c #E8E8E6",
"m&	c #E4E2E2",
"n&	c #E4E5E5",
"o&	c #E4E6E5",
"p&	c #E7E6E8",
"q&	c #E7E8E7",
"r&	c #EBEAE9",
"s&	c #EEEDEE",
"t&	c #EEECED",
"u&	c #ECECEE",
"v&	c #ECEEED",
"w&	c #EDEEED",
"x&	c #E9EBEA",
"y&	c #EAE9E7",
"z&	c #ECEBE9",
". . . . . . . . . . . . . . . . . . . . . . . . . . . . . . . . . . . . . . . . + ",
". @ # $ % % & * = - ; > ; , ' ' ' ' ' ' ' ' ' ' ' ' ' ' ' ' ' ' = ) ! ~ { ] ^ / ( ",
". _ : < [ [ $ $ } | 1 2 > ; ' 3 3 3 3 3 3 3 3 3 3 3 3 3 3 3 3 3 3 4 ! 5 6 7 8 9 ( ",
". 0 < < a b b ! $ c c * > ; ' 3 3 3 3 3 3 3 3 3 3 3 3 3 3 3 3 3 3 ; 1 < @ d e f ( ",
". g h i i i b ! $ $ c * ; ' j 3 3 3 3 3 3 3 3 3 3 3 3 3 3 3 3 3 3 k l $ m n { o ( ",
". p q i i i b $ $ $ c * ; ' ' 3 3 3 3 3 3 3 3 3 3 3 3 3 3 3 3 3 3 r ' 2 s t d u ( ",
". v 5 i i i < b $ $ c * ; ' 3 3 3 3 3 3 3 3 3 3 3 3 3 3 3 3 3 3 3 3 3 w c i x 7 ( ",
". y z # i i < b $ $ A B C D E F G H I J K L M D C C C C C N O P 3 3 3 ' Q R t S ( ",
". ] T 5 i i U b $ $ V W X Y Z `  ...+.+... . .` Z Z @.@.@.X #.$.3 3 3 3 %.&.m *.( ",
". =.-.m i m U ;.$ $ >.,.'.).!.~.{.].^./.(._.:.<.).).).).).[.}.3 3 3 3 3 ; $ |.1.( ",
". 2.3.4.5 m < 5.$ $ & 6.7.8.8.9.0.a.b.c.d.d.8.8.8.8.8.8.8.e.f.3 3 3 3 3 ; $ i 5 ( ",
". f T g.i |.< h.$ $ c i.. 3 3 3 3 3 3 3 3 3 3 3 3 3 3 3 3 j.k.3 3 3 3 3 ; $ < m ( ",
". l.t m.i # a n.$ $ c o.p.3 3 3 3 3 3 3 3 3 3 3 3 3 3 3 3 q.k.3 3 3 3 3 r.c b m ( ",
". s.q t t.m b $ $ $ c u.v.3 3 3 w.x.y.z.A.B.C.D.3 3 3 3 3 E.k.3 3 3 3 3 F.* [ G.( ",
". H.5 t t m b $ $ $ c I.+ J.K.L.M.N.O.P.Q.R.S.T.U.V.3 3 m W.X.3 3 3 3 3 3 > $ m ( ",
". Y.Z.3.3.m b $ $ $ c `. +c .+++@+#+$+%+&+*+=+-+;+>+,+'+)+!+S 3 3 3 3 3 3 2 ! m ( ",
". S ~+*.3.q U $ $ $ c t {+]+^+/+(+_+:+<+[+}+|+1+2+3+4+5+6++ 7+3 3 3 3 3 3 2 8+m ( ",
". 9+~+3.@ t i ! $ $ c 7+0+a+3 b+c+d+e+f+g+h+i+j+k+l+m+n+o+p+3 3 3 3 3 3 q+> $ i ( ",
". 3.Z.@ @ @ m b $ $ c 7+i r+s+3 t+u+v+e+w+x+y+z+A+B+C+D+E+3 3 3 3 3 3 3 F+; G+a ( ",
". H+I+T @ @ 5 i ! $ c 7+* J+K+L+M+N+O+P+Q+R+S+T+U+V+W+X+Y+3 3 3 3 3 3 3 3 ' % [ ( ",
". Z+`+t @ @ m.i ! $ c =  @j .@+@@@#@$@%@&@*@=@-@;@>@,@'@3 3 3 3 3 3 3 3 3 r )@c ( ",
". !@@ @ @ @ 5 ~@: ! $ {@]@ @' ^@/@(@_@:@<@[@}@|@1@2@3@3 3 3 3 3 3 3 3 3 j j ; 4@( ",
". n n 5@5@@ 5 m < 6@&.7@{@= ; 3 8@9@0@a@b@c@d@e@f@p+3 3 3 3 3 3 3 3 3 3 g@j ; * ( ",
". o H.!@5@5@t 5 i b $ $ $ 1 * h@; i@j@k@l@m@8@n@S 3 3 3 3 3 3 3 3 3 3 3 r ' ; | ( ",
". o@] H+5@5@@ t m b $ $ $ c p@q@r@; + s@t@u@v@p+3 3 3 3 3 q+3 ' ; w ' j ' w@7+x@( ",
". y@{ z@A@Z+Z+B@5 m < $ $ $ $ G+4@q@;.C@c@D@E@F@' ' ' , %.; , r.; ; ; ; ; ; * G@( ",
". o H@I@6 9+!@5@t 5 i ! $ $ $ $ G+m J@^@t@$.W.K@; ; ; ; L@; ; ; ; l 7+7+7+7+* p@( ",
". 8 M@N@O@P@d 5@t q # : b ! $ $ @ + Q@@ c@$ R@r+S@; ; 7+7+; ;  @* * 1 1 1 1 c T@( ",
". 8 U@H@H@V@W@5@t X@m Y@b b ! !@Z@`@@ 3 t@3 c `. #.#; 7+7+; ; 7+* | 1 $ $ c +#@#( ",
". ##8 8 =.N@S !@@ $#5 %#i i N@&#*#d 3 =#c@-#3 $ ;#Q@>#* = 7+7+* 1 1 $ $ $ ! b b ( ",
". ,#'###)#!#7 !@B@@ $#m m ] ~#a+b 3 {#]#^#/#(#3 c _#:#e@{@<#p@[#$ G+$ $ [ ! i a ( ",
". }#|#####1#N@d 5@@ t m 5 2#3#< 3 3 4#5#6#7#8#9#3 < 0#Q@3@$ $ $ ! ! $ ! b < i i ( ",
". _ |#######M@] a#@ @ t b#E.c#3 3 d#e#f#g#h#i#j#3 3 < k#( @ $ $ ! ! [ ! l#< i m#( ",
". n#o#p#####8 N@d 5@@ @ q#v.r#3 s#t#u#v#w#x#y#z#A#3 c )+B#C#$ D#! ! [ ! l#E#i F#( ",
". Y+G#H#_ I###8 { y@5@8 *#J#K#L#M#N#O#P#Q#R#S#T#U#V#' ' W#p.h X#X#b b b < i 5 ~+( ",
". Y#Z#`# $_ ##8 O@W@!@i@e@.$+$@$#$$$%$&$*$=$-$;$>$,$'$)$!$~$'#U {$< < < < i t.$#( ",
". o#]$Z#^$/$}###9 N@S ($_$:$<$[$}$|$1$2$3$4$5$6$7$8$9$0$a$b$c$m m m m m m m t 5@( ",
". d$e$f$g$h$|###8 9 ] i$j$k$l$m$n$o$p$q$r$s$t$u$v$w$x$y$z$A$c$5 5 m.t.t 5 q B$W@( ",
". C$D$E$e$)+|#######9 F$G$H$I$J$K$L$M$N$O$P$Q$R$S$T$U$V$W$X$f.@ @ Y$@ @ @ t Z$c#( ",
". ]$`$ %e$.%+%|#####8 @%#%$%%%&%*%=%-%;%>%,%'%)%!%~%{%]%^%/%)+!@!@!@Z$5@@ @ B@(%( ",
". _%:%<%f.[%)+Y+|#I#Y+}%|%1%2%3%4%5%6%7%8%9%0%a%b%c%d%e%d%f%g%H.S S h%i%j%y@Z+S ( ",
". k%l%c$J#m%e$`#+%_ .%n%o%p%q%r%s%t%u%v%w%x%y%z%A%z%B%C%A%D%E%d ] ] F%F%{ { G%V@( ",
". H%I%J%c$c$J#e$)+Y+K%L%M%N%O%P%Q%R%S%S%T%U%U%V%W%O%X%Y%M%Z%L%`%] ] ] ] ] N@9 N@( ",
".  &f.I%c$c$J#f.g$ $_$.&+&@&#&$&t%%&&&*&=&-&;&>&,&>&,&,&+&,&'&)&] ] ] ] ] 9 ##8 ( ",
". `%c$!&$.$.c$`%G#Y+~&+%######8 {&V@] .$N@9 ]&9 N@N@N@] ] ] .$e ] N@^&N@] ##n#/&( ",
". (&c$(&_&:&c$c$<&[&o#}&/ ####8 9 H@9 |&1&2&2&v 9 M@9 ] ] 9 {&!#3&4&9 3&]&##5&6&( ",
". 7&e$8&J#c$c$c$8&.%9&0&+%|###I###a&##a&a&8 ^&b&|&3&N@N@] N@9 ]&|#|###|#c&d&e&f&( ",
". o#g$e$J#J#J#J%8&g&]$ %`#/$_ h&/$|#|#####8 |&9 |&8 ]&|&N@2&8 !#+%n#~&i&}&j&k&1#( ",
". l&e&m&e&o#0 n#n&+%+%o&h&h&'#p&~&q&9 3&e r&7 |&S z@d s&n t&u&v&w&{ V@3&x&H@y&z&( ",
"+ ( ( ( ( ( ( ( ( ( ( ( ( ( ( ( ( ( ( ( ( ( ( ( ( ( ( ( ( ( ( ( ( ( ( ( ( ( ( ( ( "};
