/* XPM */
static char * search_xpm[] = {
"37 33 232 2",
"  	c None",
". 	c #020202",
"+ 	c #4A463E",
"@ 	c #72726E",
"# 	c #060606",
"$ 	c #BEAE92",
"% 	c #8E8676",
"& 	c #1E1E1E",
"* 	c #626262",
"= 	c #3E3A32",
"- 	c #9A9A9A",
"; 	c #E6DED2",
"> 	c #4E4E42",
", 	c #262626",
"' 	c #DED6C2",
") 	c #A6A6A6",
"! 	c #D6C6AA",
"~ 	c #5A564E",
"{ 	c #8A8A8A",
"] 	c #CAB69E",
"^ 	c #323232",
"/ 	c #7A665A",
"( 	c #B69E7E",
"_ 	c #8E7A62",
": 	c #0A0A0A",
"< 	c #9A8A76",
"[ 	c #7A7A7A",
"} 	c #6A6A6A",
"| 	c #8E8E8E",
"1 	c #AAA292",
"2 	c #6A5A4E",
"3 	c #AEAEAE",
"4 	c #C2A686",
"5 	c #0E0E0E",
"6 	c #5E5E5A",
"7 	c #C6BA9E",
"8 	c #4A3A2E",
"9 	c #AA9A7A",
"0 	c #2A2A2A",
"a 	c #3E423E",
"b 	c #66564A",
"c 	c #121212",
"d 	c #C6B69E",
"e 	c #BAA692",
"f 	c #FEFEF6",
"g 	c #7E7E7E",
"h 	c #929292",
"i 	c #564A42",
"j 	c #72625A",
"k 	c #B6A68A",
"l 	c #A69E8E",
"m 	c #62564E",
"n 	c #5A4E42",
"o 	c #DACABA",
"p 	c #52463A",
"q 	c #9A927E",
"r 	c #6A625A",
"s 	c #AAAAA2",
"t 	c #9E8676",
"u 	c #3A3236",
"v 	c #666662",
"w 	c #52524A",
"x 	c #CAC2B2",
"y 	c #362E32",
"z 	c #BAAE9E",
"A 	c #4A4A4A",
"B 	c #D2C6AE",
"C 	c #867E82",
"D 	c #5A5A5A",
"E 	c #222222",
"F 	c #1A1A1A",
"G 	c #2E2E2E",
"H 	c #CABEAE",
"I 	c #96968E",
"J 	c #3E3E3E",
"K 	c #323632",
"L 	c #BABABA",
"M 	c #B2B2B2",
"N 	c #9E9692",
"O 	c #6E6E6E",
"P 	c #82827E",
"Q 	c #7E766A",
"R 	c #968A82",
"S 	c #CACEBE",
"T 	c #A2927A",
"U 	c #766A62",
"V 	c #C6B69A",
"W 	c #8A8276",
"X 	c #727672",
"Y 	c #463E3A",
"Z 	c #C2C2C2",
"` 	c #B2A69A",
" .	c #A29A8E",
"..	c #BEB6A2",
"+.	c #AA967E",
"@.	c #726A5A",
"#.	c #665E52",
"$.	c #D6BEA6",
"%.	c #4E423A",
"&.	c #867A76",
"*.	c #F2E2C2",
"=.	c #A2A2A2",
"-.	c #9E9E9E",
";.	c #5E5652",
">.	c #868686",
",.	c #161616",
"'.	c #5E5256",
").	c #E6DAC6",
"!.	c #7A6A5E",
"~.	c #423A3A",
"{.	c #827A76",
"].	c #C2BEB2",
"^.	c #96826A",
"/.	c #B6A28E",
"(.	c #B6B6B6",
"_.	c #B6AEA2",
":.	c #6A6666",
"<.	c #9E9686",
"[.	c #766E5A",
"}.	c #C6B29A",
"|.	c #42362E",
"1.	c #C6CACA",
"2.	c #7E6E62",
"3.	c #4E4E4E",
"4.	c #B6AA9A",
"5.	c #BEBEBE",
"6.	c #625E5A",
"7.	c #565656",
"8.	c #CACACA",
"9.	c #625A52",
"0.	c #D2C2B2",
"a.	c #9E8E7A",
"b.	c #6A5E4E",
"c.	c #3A3632",
"d.	c #AA9A82",
"e.	c #665A52",
"f.	c #4E524E",
"g.	c #E2CEB2",
"h.	c #8E7E6E",
"i.	c #56524E",
"j.	c #524A3E",
"k.	c #C2B29A",
"l.	c #969692",
"m.	c #767676",
"n.	c #9E8A7E",
"o.	c #E2DACE",
"p.	c #CAC2BE",
"q.	c #7E7676",
"r.	c #BAB6AE",
"s.	c #726A66",
"t.	c #F2E6CE",
"u.	c #8E7E6A",
"v.	c #D2C2A6",
"w.	c #76726E",
"x.	c #C2AE92",
"y.	c #CEBA9A",
"z.	c #6E665A",
"A.	c #4A423E",
"B.	c #464646",
"C.	c #3A3A3A",
"D.	c #B29E86",
"E.	c #AAAAAA",
"F.	c #C2AA8A",
"G.	c #72665A",
"H.	c #5A5246",
"I.	c #86827E",
"J.	c #766E6A",
"K.	c #CECEC6",
"L.	c #AE9E86",
"M.	c #8A7A66",
"N.	c #66625E",
"O.	c #363236",
"P.	c #7E7A7A",
"Q.	c #424242",
"R.	c #5E5A56",
"S.	c #363636",
"T.	c #726E6A",
"U.	c #525252",
"V.	c #D6C2A2",
"W.	c #7A6E6A",
"X.	c #6E5E56",
"Y.	c #7E6A56",
"Z.	c #8A7E72",
"`.	c #7E6E5E",
" +	c #B2AEAA",
".+	c #BEA68E",
"++	c #4A3A36",
"@+	c #C2B6A6",
"#+	c #524642",
"$+	c #A29A96",
"%+	c #524242",
"&+	c #E6DACA",
"*+	c #625E62",
"=+	c #625A5A",
"-+	c #C2AE9A",
";+	c #CECECE",
">+	c #6E6256",
",+	c #4A3E3E",
"'+	c #8E7A6A",
")+	c #9E8A72",
"!+	c #3A2E2E",
"~+	c #A29696",
"{+	c #EADAC2",
"]+	c #A2968A",
"^+	c #A28E7A",
"/+	c #6E5E4E",
"(+	c #3E362E",
"_+	c #AE9A86",
":+	c #8A827E",
"<+	c #5E5E5E",
"[+	c #666666",
"}+	c #828282",
"|+	c #969696",
"1+	c #727272",
"2+	c #625652",
"3+	c #BEAE96",
"4+	c #A2927E",
"5+	c #665A56",
"6+	c #CEBA9E",
"7+	c #C6B6A2",
"8+	c #B6A68E",
"9+	c #5A4E46",
"0+	c #727676",
"a+	c #463E3E",
"b+	c #AA9682",
"c+	c #625E5E",
"d+	c #524A42",
"e+	c #D2C2AA",
"f+	c #767272",
"g+	c #C2AE96",
"h+	c #8A7A6A",
"i+	c #D6C2A6",
"                                                                          ",
"                                                                          ",
"                                                                          ",
"                                                                          ",
"                                                                          ",
"        m.7.G G B.                                                        ",
"      } |+-.|+[ y u                               . . .                   ",
"    B.- - -.|+l.x 8 Y                           . . . .                   ",
"  G.| - - - |+- (.).d+p             . c ^   G F . . .                     ",
"  A -.- |+- - -.E.L b+X.9+    . . . E ^       & . .                       ",
"  @ -.- |+- - -.=.(.Z m ;.B.. . .             E .                         ",
"s } =.-.- |+- -.-.) (.z 2.M.. .               &                           ",
"  v =.|+- |+- -.=.E.{ M t n.C.              E                             ",
"  <+) - - |+|+-.=.E.E.>.e D.p.              5                             ",
"  A 8.|+h |+- -.) E.=.C.@+v.&+            :                               ",
"  i.) >.g }+{ -.) ) E., l 7 B           ,..                               ",
"  f O >.m.O 1+g =.E.) F q e @+        J .                                 ",
"  /.J [ [+D 7.D [ E.) B.1 ( $       Q.. .                                 ",
"    > D <+D D 7.7.}+E.g d * O     C.. . . .                               ",
"    =+O.7.* * <+R.D =.E.q { O 7.  : .                                     ",
"      S.Q.[+[+* <+} O =.h+9.E.[ F ,.                                      ",
"        G U.O [+* * <+) G.f+U.<+0 0 0 &                                   ",
"          = 3.} |+[ } < }+3.    J J C.B.G ,.  .                           ",
"            E Q.[+>.q.A             B.A A S.E ,..                         ",
"                                      3.U.Q.J G & .                       ",
"                                        A A U.J ^ & &                     ",
"                                          * B.D U.C.0 &                   ",
"                                              U.D 3.J ^ E F               ",
"                                                D 7.U.B.^ E &             ",
"                                                    A A A S.G &           ",
"                                                      3.Q.3.D } G         ",
"                                                          C.B.Q.S.        ",
"                                                            0 C.          "};
