/* XPM */
static char * spider_xpm[] = {
"22 20 159 2",
"  	c None",
". 	c #CBA6D9",
"+ 	c #9474B3",
"@ 	c #6A568D",
"# 	c #CBA7D9",
"$ 	c #9A78B8",
"% 	c #C8AAD3",
"& 	c #8A70B4",
"* 	c #6C598E",
"= 	c #A789BF",
"- 	c #7E6596",
"; 	c #8060A1",
"> 	c #825CA3",
", 	c #634E87",
"' 	c #977AAD",
") 	c #9E7DB1",
"! 	c #D7BFDD",
"~ 	c #8868A4",
"{ 	c #A384BF",
"] 	c #62538D",
"^ 	c #A483BE",
"/ 	c #67548B",
"( 	c #584885",
"_ 	c #BB97CB",
": 	c #886CA8",
"< 	c #645393",
"[ 	c #BC9DC9",
"} 	c #BF9BCE",
"| 	c #76579B",
"1 	c #AA8AC7",
"2 	c #9075AF",
"3 	c #6F53A0",
"4 	c #594682",
"5 	c #A081AE",
"6 	c #B897C8",
"7 	c #826CAF",
"8 	c #584A82",
"9 	c #A88CB7",
"0 	c #725D94",
"a 	c #6D5697",
"b 	c #8C6AA8",
"c 	c #5A4881",
"d 	c #9170B2",
"e 	c #7954A6",
"f 	c #434286",
"g 	c #353561",
"h 	c #423968",
"i 	c #725B87",
"j 	c #B294C6",
"k 	c #544989",
"l 	c #8C75A1",
"m 	c #D4B9DC",
"n 	c #967BAE",
"o 	c #635389",
"p 	c #8C6FB3",
"q 	c #5C4589",
"r 	c #5C4692",
"s 	c #4C4BA1",
"t 	c #404390",
"u 	c #3B3663",
"v 	c #77599A",
"w 	c #5D4C88",
"x 	c #BA99C8",
"y 	c #C498D8",
"z 	c #A380B2",
"A 	c #9A7DAE",
"B 	c #7C56A5",
"C 	c #544A99",
"D 	c #414597",
"E 	c #404493",
"F 	c #3D3E7A",
"G 	c #75568D",
"H 	c #C4A3D1",
"I 	c #AA89B9",
"J 	c #9A81B1",
"K 	c #917AB7",
"L 	c #7762AA",
"M 	c #4D4690",
"N 	c #40428C",
"O 	c #363562",
"P 	c #363563",
"Q 	c #35335C",
"R 	c #404288",
"S 	c #6D5B9B",
"T 	c #9679AF",
"U 	c #967DAE",
"V 	c #967EB8",
"W 	c #8D7AB8",
"X 	c #987EB3",
"Y 	c #D3B7DC",
"Z 	c #9075B2",
"` 	c #66508E",
" .	c #725F94",
"..	c #806DA1",
"+.	c #9273AE",
"@.	c #9174A8",
"#.	c #9C79AE",
"$.	c #544893",
"%.	c #443D7B",
"&.	c #40438D",
"*.	c #40438E",
"=.	c #3D3E7D",
"-.	c #6F4D8A",
";.	c #7F639F",
">.	c #7F6E9D",
",.	c #8E79A4",
"'.	c #7F6B9E",
").	c #6B5D91",
"!.	c #554784",
"~.	c #A185B5",
"{.	c #AB93BC",
"].	c #7F6B9F",
"^.	c #C9AAD4",
"/.	c #8871B7",
"(.	c #64448D",
"_.	c #4B4BA4",
":.	c #404495",
"<.	c #3D3E76",
"[.	c #423B6C",
"}.	c #9479AF",
"|.	c #BB8FCF",
"1.	c #B294BD",
"2.	c #8C739D",
"3.	c #4E4588",
"4.	c #936CAD",
"5.	c #474CA6",
"6.	c #3F428A",
"7.	c #333152",
"8.	c #AC89BB",
"9.	c #736099",
"0.	c #54488D",
"a.	c #9379B0",
"b.	c #6D5C9B",
"c.	c #866D9D",
"d.	c #BE9DCA",
"e.	c #4A499D",
"f.	c #3E4085",
"g.	c #504164",
"h.	c #B394C1",
"i.	c #544A85",
"j.	c #8E75A8",
"k.	c #BEA0CD",
"l.	c #5E529A",
"m.	c #80699C",
"n.	c #9579B4",
"o.	c #3E4082",
"p.	c #3E3F7A",
"q.	c #343153",
"r.	c #997EA6",
"s.	c #6B5480",
"t.	c #7261A2",
"u.	c #82659E",
"v.	c #87669D",
"w.	c #6C597F",
"x.	c #A289AC",
"y.	c #A88AC0",
"z.	c #675690",
"A.	c #896EA1",
"B.	c #B59AC0",
"            .                               ",
"                              + @           ",
"    # $ %                   & *     = -     ",
"    ; > , '       )   ! ~ { ]     ^ / %     ",
"      ( _ : < [ } | 1 2 3 4 5 6 7 8         ",
"      9 0 a b c d e f g h i j k l         m ",
"          n o p q r s t u v w x     y       ",
"            z A B C D E F G H               ",
"        I J K L M N O P Q R S T U V W X Y   ",
"  Z `  ...+.@.#.$.%.&.t *.=.-.;.>.,.'.).!.~.",
"{.].^.        /.(._.E :.&.<.[.}.|.      1.2.",
"              3.4.5.t :.6.7.8.9.0.a.        ",
"            b.c.d.e.t *.f.g.    h.i.j.      ",
"        k.l.m.    n.o.p.q.r.        s.      ",
"        t.u.        v.w.x.                  ",
"      y.z.                                  ",
"      A.B.                                  ",
"                                            ",
"                                            ",
"                                            "};
