/* XPM */
static char * stock_zoom_fit_xpm[] = {
"24 24 131 2",
"  	c None",
". 	c #000000",
"+ 	c #30302D",
"@ 	c #7E7E75",
"# 	c #B3B3A5",
"$ 	c #CFCFBE",
"% 	c #D2D2C1",
"& 	c #BABAAA",
"* 	c #848479",
"= 	c #31312D",
"- 	c #87877F",
"; 	c #D7D7CC",
"> 	c #DADACD",
", 	c #DADACC",
"' 	c #DFDFCF",
") 	c #DEDECD",
"! 	c #D9D9C8",
"~ 	c #7E7E73",
"{ 	c #A6A69D",
"] 	c #E2E2D9",
"^ 	c #E9E9E2",
"/ 	c #EAEAE2",
"( 	c #D9D9C7",
"_ 	c #D4D4C3",
": 	c #929285",
"< 	c #86867E",
"[ 	c #E0E0D8",
"} 	c #F0F0EB",
"| 	c #F8F8F5",
"1 	c #CECEBD",
"2 	c #C9C9B8",
"3 	c #C4C4B4",
"4 	c #717168",
"5 	c #30302C",
"6 	c #D6D6CA",
"7 	c #E7E7DF",
"8 	c #F6F6F3",
"9 	c #FEFEFD",
"0 	c #FCFCFA",
"a 	c #F5F5EF",
"b 	c #D6D6C6",
"c 	c #C4C4B3",
"d 	c #BFBFAE",
"e 	c #B9B9AA",
"f 	c #282824",
"g 	c #D9D9CC",
"h 	c #E6E6DD",
"i 	c #FAFAF7",
"j 	c #F9F9F5",
"k 	c #F0F0E9",
"l 	c #D0D0C0",
"m 	c #C8C8B9",
"n 	c #C3C3B3",
"o 	c #B9B9A9",
"p 	c #B4B4A4",
"q 	c #68685F",
"r 	c #B3B3A6",
"s 	c #F2F2EA",
"t 	c #EFEFE6",
"u 	c #E7E7DC",
"v 	c #CACABA",
"w 	c #BEBEAD",
"x 	c #AEAE9F",
"y 	c #909083",
"z 	c #D1D1C0",
"A 	c #A1A192",
"B 	c #D5D5C3",
"C 	c #9B9B8D",
"D 	c #BDBDAE",
"E 	c #DFDFCE",
"F 	c #D2D2C2",
"G 	c #CDCDBD",
"H 	c #C8C8B8",
"I 	c #B7B7A7",
"J 	c #B2B2A2",
"K 	c #ADAD9E",
"L 	c #9E9E8F",
"M 	c #828275",
"N 	c #DADAC8",
"O 	c #D5D5C4",
"P 	c #CBCBBA",
"Q 	c #C6C6B5",
"R 	c #C1C1B0",
"S 	c #B1B1A2",
"T 	c #ACAC9D",
"U 	c #A7A798",
"V 	c #9D9D8F",
"W 	c #98988A",
"X 	c #57574F",
"Y 	c #CACAB9",
"Z 	c #C5C5B5",
"` 	c #C0C0B0",
" .	c #BBBBAB",
"..	c #A2A293",
"+.	c #9D9D8E",
"@.	c #989889",
"#.	c #1F1F1C",
"$.	c #7B7B71",
"%.	c #C5C5B4",
"&.	c #C0C0AF",
"*.	c #9C9C8E",
"=.	c #979789",
"-.	c #929284",
";.	c #53534B",
">.	c #8D8D82",
",.	c #BFBFAF",
"'.	c #B5B5A5",
").	c #9C9C8D",
"!.	c #969689",
"~.	c #919184",
"{.	c #65655C",
"].	c #6E6E65",
"^.	c #B4B4A5",
"/.	c #AFAFA0",
"(.	c #AAAA9B",
"_.	c #969688",
":.	c #919183",
"<.	c #241D14",
"[.	c #211100",
"}.	c #262623",
"|.	c #8C8C80",
"1.	c #7F7F74",
"2.	c #55554E",
"3.	c #E9D1B8",
"4.	c #A6825C",
"5.	c #582D00",
"6.	c #0B0600",
"7.	c #160B00",
"8.	c #4D2800",
"9.	c #371C00",
"0.	c #372B1F",
"              . . . . . .                       ",
"          . . . . . . . . . .                   ",
"        . . + @ # $ % & * = . .                 ",
"      . . - ; > , . . ' ) ! ~ . .               ",
"    . . { ] ^ / . . . . ( _ $ : . .             ",
"  . . < [ } | . . . . . . 1 2 3 4 . .           ",
"  . 5 6 7 8 9 0 a . . b $ 2 c d e f .           ",
". . @ g h . i j k . . l m n . o p q . .         ",
". . r , . . s t u . . v n w . . x y . .         ",
". . z . . . . . . . . . . . . . . A . .         ",
". . B . . . . . . . . . . . . . . C . .         ",
". . D E . . F G H . . I J K . . L M . .         ",
". . * N O . P Q R . . S T U . V W X . .         ",
"  . 5 _ $ Y Z `  .. . T U ..+.@.: #..           ",
"  . . $.Y %.&.. . . . . . *.=.-.;.. .           ",
"    . . >.,.& '.. . . . ).!.~.{.. . .           ",
"      . . ].^./.(.. . C _.:.;.. . <.[..         ",
"        . . }.{.|.+.@.1.2.#.. . <.3.4.5.6.      ",
"          . . . . . . . . . . . 7.4.3.4.5.6.    ",
"              . . . . . .       . 8.4.3.4.5..   ",
"                                  6.5.4.3.4.9.. ",
"                                    6.5.4.3.4.. ",
"                                      6.8.4.3.. ",
"                                        . 7.0.. "};
