/* XPM */
static char * stock_zoom_fit_height_xpm[] = {
"24 24 159 2",
"  	c None",
". 	c #000000",
"+ 	c #30302D",
"@ 	c #7E7E75",
"# 	c #B3B3A5",
"$ 	c #CFCFBE",
"% 	c #D2D2C1",
"& 	c #BABAAA",
"* 	c #848479",
"= 	c #31312D",
"- 	c #87877F",
"; 	c #D7D7CC",
"> 	c #DADACD",
", 	c #DADACC",
"' 	c #DFDFCF",
") 	c #DEDECD",
"! 	c #D9D9C8",
"~ 	c #7E7E73",
"{ 	c #A6A69D",
"] 	c #E2E2D9",
"^ 	c #E9E9E2",
"/ 	c #EAEAE2",
"( 	c #D9D9C7",
"_ 	c #D4D4C3",
": 	c #929285",
"< 	c #86867E",
"[ 	c #E0E0D8",
"} 	c #F0F0EB",
"| 	c #F8F8F5",
"1 	c #CECEBD",
"2 	c #C9C9B8",
"3 	c #C4C4B4",
"4 	c #717168",
"5 	c #30302C",
"6 	c #D6D6CA",
"7 	c #E7E7DF",
"8 	c #F6F6F3",
"9 	c #FEFEFD",
"0 	c #FCFCFA",
"a 	c #F5F5EF",
"b 	c #D6D6C6",
"c 	c #C4C4B3",
"d 	c #BFBFAE",
"e 	c #B9B9AA",
"f 	c #282824",
"g 	c #D9D9CC",
"h 	c #E6E6DD",
"i 	c #F3F3EE",
"j 	c #FAFAF7",
"k 	c #F9F9F5",
"l 	c #F0F0E9",
"m 	c #D0D0C0",
"n 	c #C8C8B9",
"o 	c #C3C3B3",
"p 	c #BEBEAE",
"q 	c #B9B9A9",
"r 	c #B4B4A4",
"s 	c #68685F",
"t 	c #B3B3A6",
"u 	c #E4E4D8",
"v 	c #EDEDE4",
"w 	c #F2F2EA",
"x 	c #EFEFE6",
"y 	c #E7E7DC",
"z 	c #CACABA",
"A 	c #BEBEAD",
"B 	c #B8B8A9",
"C 	c #B3B3A4",
"D 	c #AEAE9F",
"E 	c #909083",
"F 	c #D1D1C0",
"G 	c #DBDBCC",
"H 	c #E2E2D4",
"I 	c #E8E8DB",
"J 	c #E6E6DA",
"K 	c #E2E2D5",
"L 	c #BDBDAD",
"M 	c #B8B8A8",
"N 	c #B3B3A3",
"O 	c #A9A99A",
"P 	c #A1A192",
"Q 	c #D5D5C3",
"R 	c #DFDFCE",
"S 	c #E2E2D1",
"T 	c #DBDBCB",
"U 	c #D6D6C7",
"V 	c #D0D0C1",
"W 	c #BDBDAC",
"X 	c #B7B7A8",
"Y 	c #B2B2A3",
"Z 	c #ADAD9E",
"` 	c #A8A899",
" .	c #A3A395",
"..	c #9B9B8D",
"+.	c #BDBDAE",
"@.	c #DBDBCA",
"#.	c #D2D2C2",
"$.	c #CDCDBD",
"%.	c #C8C8B8",
"&.	c #B7B7A7",
"*.	c #B2B2A2",
"=.	c #A3A394",
"-.	c #9E9E8F",
";.	c #828275",
">.	c #DADAC8",
",.	c #D5D5C4",
"'.	c #D0D0BF",
").	c #CBCBBA",
"!.	c #C6C6B5",
"~.	c #C1C1B0",
"{.	c #B1B1A2",
"].	c #ACAC9D",
"^.	c #A7A798",
"/.	c #A2A294",
"(.	c #9D9D8F",
"_.	c #98988A",
":.	c #57574F",
"<.	c #CACAB9",
"[.	c #C5C5B5",
"}.	c #C0C0B0",
"|.	c #BBBBAB",
"1.	c #A2A293",
"2.	c #9D9D8E",
"3.	c #989889",
"4.	c #1F1F1C",
"5.	c #7B7B71",
"6.	c #C5C5B4",
"7.	c #C0C0AF",
"8.	c #9C9C8E",
"9.	c #979789",
"0.	c #929284",
"a.	c #53534B",
"b.	c #8D8D82",
"c.	c #BFBFAF",
"d.	c #B5B5A5",
"e.	c #9C9C8D",
"f.	c #969689",
"g.	c #919184",
"h.	c #65655C",
"i.	c #6E6E65",
"j.	c #B4B4A5",
"k.	c #AFAFA0",
"l.	c #AAAA9B",
"m.	c #969688",
"n.	c #919183",
"o.	c #241D14",
"p.	c #211100",
"q.	c #262623",
"r.	c #8C8C80",
"s.	c #7F7F74",
"t.	c #55554E",
"u.	c #E9D1B8",
"v.	c #A6825C",
"w.	c #582D00",
"x.	c #0B0600",
"y.	c #160B00",
"z.	c #4D2800",
"A.	c #371C00",
"B.	c #372B1F",
"              . . . . . .                       ",
"          . . . . . . . . . .                   ",
"        . . + @ # $ % & * = . .                 ",
"      . . - ; > , . . ' ) ! ~ . .               ",
"    . . { ] ^ / . . . . ( _ $ : . .             ",
"  . . < [ } | . . . . . . 1 2 3 4 . .           ",
"  . 5 6 7 8 9 0 a . . b $ 2 c d e f .           ",
". . @ g h i j k l . . m n o p q r s . .         ",
". . t , u v w x y . . z o A B C D E . .         ",
". . F G H I J K > . . o L M N D O P . .         ",
". . Q R S ' T U V . . W X Y Z `  .... .         ",
". . +.R @.b #.$.%.. . &.*.Z ` =.-.;.. .         ",
". . * >.,.'.).!.~.. . {.].^./.(._.:.. .         ",
"  . 5 _ $ <.[.}.|.. . ].^.1.2.3.: 4..           ",
"  . . 5.<.6.7.. . . . . . 8.9.0.a.. .           ",
"    . . b.c.& d.. . . . e.f.g.h.. . .           ",
"      . . i.j.k.l.. . ..m.n.a.. . o.p..         ",
"        . . q.h.r.2.3.s.t.4.. . o.u.v.w.x.      ",
"          . . . . . . . . . . . y.v.u.v.w.x.    ",
"              . . . . . .       . z.v.u.v.w..   ",
"                                  x.w.v.u.v.A.. ",
"                                    x.w.v.u.v.. ",
"                                      x.z.v.u.. ",
"                                        . y.B.. "};
