/* XPM */
static char * stock_zoom_fit_width_xpm[] = {
"24 24 161 2",
"  	c None",
". 	c #000000",
"+ 	c #30302D",
"@ 	c #7E7E75",
"# 	c #B3B3A5",
"$ 	c #CFCFBE",
"% 	c #D2D2C1",
"& 	c #BABAAA",
"* 	c #848479",
"= 	c #31312D",
"- 	c #87877F",
"; 	c #D7D7CC",
"> 	c #DADACD",
", 	c #DADACC",
"' 	c #DADACB",
") 	c #DCDCCC",
"! 	c #DFDFCF",
"~ 	c #DEDECD",
"{ 	c #D9D9C8",
"] 	c #7E7E73",
"^ 	c #A6A69D",
"/ 	c #E2E2D9",
"( 	c #E9E9E2",
"_ 	c #EAEAE2",
": 	c #E6E6DB",
"< 	c #E3E3D5",
"[ 	c #E3E3D3",
"} 	c #DFDFCE",
"| 	c #D9D9C7",
"1 	c #D4D4C3",
"2 	c #929285",
"3 	c #86867E",
"4 	c #E0E0D8",
"5 	c #F0F0EB",
"6 	c #F8F8F5",
"7 	c #F7F7F3",
"8 	c #F0F0E9",
"9 	c #EAEADF",
"0 	c #E2E2D4",
"a 	c #DADACA",
"b 	c #D3D3C2",
"c 	c #CECEBD",
"d 	c #C9C9B8",
"e 	c #C4C4B4",
"f 	c #717168",
"g 	c #30302C",
"h 	c #D6D6CA",
"i 	c #E7E7DF",
"j 	c #F6F6F3",
"k 	c #FEFEFD",
"l 	c #FCFCFA",
"m 	c #F5F5EF",
"n 	c #DFDFD0",
"o 	c #D6D6C6",
"p 	c #C4C4B3",
"q 	c #BFBFAE",
"r 	c #B9B9AA",
"s 	c #282824",
"t 	c #D9D9CC",
"u 	c #E6E6DD",
"v 	c #FAFAF7",
"w 	c #F9F9F5",
"x 	c #E4E4D9",
"y 	c #D9D9CA",
"z 	c #D0D0C0",
"A 	c #C8C8B9",
"B 	c #C3C3B3",
"C 	c #B9B9A9",
"D 	c #B4B4A4",
"E 	c #68685F",
"F 	c #B3B3A6",
"G 	c #F2F2EA",
"H 	c #EFEFE6",
"I 	c #E7E7DC",
"J 	c #DCDCCF",
"K 	c #D2D2C3",
"L 	c #CACABA",
"M 	c #BEBEAD",
"N 	c #AEAE9F",
"O 	c #909083",
"P 	c #D1D1C0",
"Q 	c #A1A192",
"R 	c #D5D5C3",
"S 	c #9B9B8D",
"T 	c #BDBDAE",
"U 	c #D2D2C2",
"V 	c #CDCDBD",
"W 	c #C8C8B8",
"X 	c #C1C1B2",
"Y 	c #BCBCAC",
"Z 	c #B7B7A7",
"` 	c #B2B2A2",
" .	c #ADAD9E",
"..	c #9E9E8F",
"+.	c #828275",
"@.	c #DADAC8",
"#.	c #D5D5C4",
"$.	c #CBCBBA",
"%.	c #C6C6B5",
"&.	c #C1C1B0",
"*.	c #BBBBAC",
"=.	c #B6B6A7",
"-.	c #B1B1A2",
";.	c #ACAC9D",
">.	c #A7A798",
",.	c #9D9D8F",
"'.	c #98988A",
").	c #57574F",
"!.	c #CACAB9",
"~.	c #C5C5B5",
"{.	c #C0C0B0",
"].	c #BBBBAB",
"^.	c #B6B6A6",
"/.	c #B1B1A1",
"(.	c #A2A293",
"_.	c #9D9D8E",
":.	c #989889",
"<.	c #1F1F1C",
"[.	c #7B7B71",
"}.	c #C5C5B4",
"|.	c #C0C0AF",
"1.	c #BABAAB",
"2.	c #B5B5A6",
"3.	c #B0B0A1",
"4.	c #ABAB9C",
"5.	c #A6A697",
"6.	c #A1A193",
"7.	c #9C9C8E",
"8.	c #979789",
"9.	c #929284",
"0.	c #53534B",
"a.	c #8D8D82",
"b.	c #BFBFAF",
"c.	c #B5B5A5",
"d.	c #B0B0A0",
"e.	c #9C9C8D",
"f.	c #969689",
"g.	c #919184",
"h.	c #65655C",
"i.	c #6E6E65",
"j.	c #B4B4A5",
"k.	c #AFAFA0",
"l.	c #AAAA9B",
"m.	c #A5A596",
"n.	c #A0A092",
"o.	c #969688",
"p.	c #919183",
"q.	c #241D14",
"r.	c #211100",
"s.	c #262623",
"t.	c #8C8C80",
"u.	c #7F7F74",
"v.	c #55554E",
"w.	c #E9D1B8",
"x.	c #A6825C",
"y.	c #582D00",
"z.	c #0B0600",
"A.	c #160B00",
"B.	c #4D2800",
"C.	c #371C00",
"D.	c #372B1F",
"              . . . . . .                       ",
"          . . . . . . . . . .                   ",
"        . . + @ # $ % & * = . .                 ",
"      . . - ; > , ' ) ! ~ { ] . .               ",
"    . . ^ / ( _ : < [ } | 1 $ 2 . .             ",
"  . . 3 4 5 6 7 8 9 0 a b c d e f . .           ",
"  . g h i j k l m 9 n o $ d p q r s .           ",
". . @ t u . v w 8 x y z A B . C D E . .         ",
". . F , . . G H I J K L B M . . N O . .         ",
". . P . . . . . . . . . . . . . . Q . .         ",
". . R . . . . . . . . . . . . . . S . .         ",
". . T } . . U V W X Y Z `  .. . ..+.. .         ",
". . * @.#.. $.%.&.*.=.-.;.>.. ,.'.).. .         ",
"  . g 1 $ !.~.{.].^./.;.>.(._.:.2 <..           ",
"  . . [.!.}.|.1.2.3.4.5.6.7.8.9.0.. .           ",
"    . . a.b.& c.d.4.5.Q e.f.g.h.. . .           ",
"      . . i.j.k.l.m.n.S o.p.0.. . q.r..         ",
"        . . s.h.t._.:.u.v.<.. . q.w.x.y.z.      ",
"          . . . . . . . . . . . A.x.w.x.y.z.    ",
"              . . . . . .       . B.x.w.x.y..   ",
"                                  z.y.x.w.x.C.. ",
"                                    z.y.x.w.x.. ",
"                                      z.B.x.w.. ",
"                                        . A.D.. "};
