/* XPM */
static char * stock_zoom_empty_xpm[] = {
"24 24 190 2",
"  	c None",
". 	c #000000",
"+ 	c #30302D",
"@ 	c #7E7E75",
"# 	c #B3B3A5",
"$ 	c #CFCFBE",
"% 	c #D2D2C1",
"& 	c #BABAAA",
"* 	c #848479",
"= 	c #31312D",
"- 	c #87877F",
"; 	c #D7D7CC",
"> 	c #DADACD",
", 	c #DADACC",
"' 	c #DADACB",
") 	c #DCDCCC",
"! 	c #DFDFCF",
"~ 	c #DEDECD",
"{ 	c #D9D9C8",
"] 	c #7E7E73",
"^ 	c #A6A69D",
"/ 	c #E2E2D9",
"( 	c #E9E9E2",
"_ 	c #EAEAE2",
": 	c #E6E6DB",
"< 	c #E3E3D5",
"[ 	c #E3E3D3",
"} 	c #DFDFCE",
"| 	c #D9D9C7",
"1 	c #D4D4C3",
"2 	c #929285",
"3 	c #86867E",
"4 	c #E0E0D8",
"5 	c #F0F0EB",
"6 	c #F8F8F5",
"7 	c #F7F7F3",
"8 	c #F0F0E9",
"9 	c #EAEADF",
"0 	c #E2E2D4",
"a 	c #DADACA",
"b 	c #D3D3C2",
"c 	c #CECEBD",
"d 	c #C9C9B8",
"e 	c #C4C4B4",
"f 	c #717168",
"g 	c #30302C",
"h 	c #D6D6CA",
"i 	c #E7E7DF",
"j 	c #F6F6F3",
"k 	c #FEFEFD",
"l 	c #FCFCFA",
"m 	c #F5F5EF",
"n 	c #DFDFD0",
"o 	c #D6D6C6",
"p 	c #C4C4B3",
"q 	c #BFBFAE",
"r 	c #B9B9AA",
"s 	c #282824",
"t 	c #D9D9CC",
"u 	c #E6E6DD",
"v 	c #F3F3EE",
"w 	c #FAFAF7",
"x 	c #F9F9F5",
"y 	c #E4E4D9",
"z 	c #D9D9CA",
"A 	c #D0D0C0",
"B 	c #C8C8B9",
"C 	c #C3C3B3",
"D 	c #BEBEAE",
"E 	c #B9B9A9",
"F 	c #B4B4A4",
"G 	c #68685F",
"H 	c #B3B3A6",
"I 	c #E4E4D8",
"J 	c #EDEDE4",
"K 	c #F2F2EA",
"L 	c #EFEFE6",
"M 	c #E7E7DC",
"N 	c #DCDCCF",
"O 	c #D2D2C3",
"P 	c #CACABA",
"Q 	c #BEBEAD",
"R 	c #B8B8A9",
"S 	c #B3B3A4",
"T 	c #AEAE9F",
"U 	c #909083",
"V 	c #D1D1C0",
"W 	c #DBDBCC",
"X 	c #E8E8DB",
"Y 	c #E6E6DA",
"Z 	c #E2E2D5",
"` 	c #CACABB",
" .	c #BDBDAD",
"..	c #B8B8A8",
"+.	c #B3B3A3",
"@.	c #A9A99A",
"#.	c #A1A192",
"$.	c #D5D5C3",
"%.	c #E2E2D1",
"&.	c #DBDBCB",
"*.	c #D6D6C7",
"=.	c #D0D0C1",
"-.	c #C3C3B2",
";.	c #BDBDAC",
">.	c #B7B7A8",
",.	c #B2B2A3",
"'.	c #ADAD9E",
").	c #A8A899",
"!.	c #A3A395",
"~.	c #9B9B8D",
"{.	c #BDBDAE",
"].	c #DBDBCA",
"^.	c #D2D2C2",
"/.	c #CDCDBD",
"(.	c #C8C8B8",
"_.	c #C1C1B2",
":.	c #BCBCAC",
"<.	c #B7B7A7",
"[.	c #B2B2A2",
"}.	c #A3A394",
"|.	c #9E9E8F",
"1.	c #828275",
"2.	c #DADAC8",
"3.	c #D5D5C4",
"4.	c #D0D0BF",
"5.	c #CBCBBA",
"6.	c #C6C6B5",
"7.	c #C1C1B0",
"8.	c #BBBBAC",
"9.	c #B6B6A7",
"0.	c #B1B1A2",
"a.	c #ACAC9D",
"b.	c #A7A798",
"c.	c #A2A294",
"d.	c #9D9D8F",
"e.	c #98988A",
"f.	c #57574F",
"g.	c #CACAB9",
"h.	c #C5C5B5",
"i.	c #C0C0B0",
"j.	c #BBBBAB",
"k.	c #B6B6A6",
"l.	c #B1B1A1",
"m.	c #A2A293",
"n.	c #9D9D8E",
"o.	c #989889",
"p.	c #1F1F1C",
"q.	c #7B7B71",
"r.	c #C5C5B4",
"s.	c #C0C0AF",
"t.	c #BABAAB",
"u.	c #B5B5A6",
"v.	c #B0B0A1",
"w.	c #ABAB9C",
"x.	c #A6A697",
"y.	c #A1A193",
"z.	c #9C9C8E",
"A.	c #979789",
"B.	c #929284",
"C.	c #53534B",
"D.	c #8D8D82",
"E.	c #BFBFAF",
"F.	c #B5B5A5",
"G.	c #B0B0A0",
"H.	c #9C9C8D",
"I.	c #969689",
"J.	c #919184",
"K.	c #65655C",
"L.	c #6E6E65",
"M.	c #B4B4A5",
"N.	c #AFAFA0",
"O.	c #AAAA9B",
"P.	c #A5A596",
"Q.	c #A0A092",
"R.	c #969688",
"S.	c #919183",
"T.	c #241D14",
"U.	c #211100",
"V.	c #262623",
"W.	c #8C8C80",
"X.	c #7F7F74",
"Y.	c #55554E",
"Z.	c #E9D1B8",
"`.	c #A6825C",
" +	c #582D00",
".+	c #0B0600",
"++	c #160B00",
"@+	c #4D2800",
"#+	c #371C00",
"$+	c #372B1F",
"              . . . . . .                       ",
"          . . . . . . . . . .                   ",
"        . . + @ # $ % & * = . .                 ",
"      . . - ; > , ' ) ! ~ { ] . .               ",
"    . . ^ / ( _ : < [ } | 1 $ 2 . .             ",
"  . . 3 4 5 6 7 8 9 0 a b c d e f . .           ",
"  . g h i j k l m 9 n o $ d p q r s .           ",
". . @ t u v w x 8 y z A B C D E F G . .         ",
". . H , I J K L M N O P C Q R S T U . .         ",
". . V W 0 X Y Z > O ` C  ...+.T @.#.. .         ",
". . $.} %.! &.*.=.P -.;.>.,.'.).!.~.. .         ",
". . {.} ].o ^./.(._.:.<.[.'.).}.|.1.. .         ",
". . * 2.3.4.5.6.7.8.9.0.a.b.c.d.e.f.. .         ",
"  . g 1 $ g.h.i.j.k.l.a.b.m.n.o.2 p..           ",
"  . . q.g.r.s.t.u.v.w.x.y.z.A.B.C.. .           ",
"    . . D.E.& F.G.w.x.#.H.I.J.K.. . .           ",
"      . . L.M.N.O.P.Q.~.R.S.C.. . T.U..         ",
"        . . V.K.W.n.o.X.Y.p.. . T.Z.`. +.+      ",
"          . . . . . . . . . . . ++`.Z.`. +.+    ",
"              . . . . . .       . @+`.Z.`. +.   ",
"                                  .+ +`.Z.`.#+. ",
"                                    .+ +`.Z.`.. ",
"                                      .+@+`.Z.. ",
"                                        . ++$+. "};
