/* XPM */
static char * vmbutton2_xpm[] = {
"22 22 102 2",
"  	c None",
". 	c #585858",
"+ 	c #494949",
"@ 	c #CACACA",
"# 	c #CBCBCB",
"$ 	c #CCCCCC",
"% 	c #CDCDCD",
"& 	c #CECECE",
"* 	c #CFCFCF",
"= 	c #777777",
"- 	c #AAAAAA",
"; 	c #C6C6C6",
"> 	c #C4C4C4",
", 	c #C2C2C2",
"' 	c #BFBFBF",
") 	c #BEBEBE",
"! 	c #BBBBBB",
"~ 	c #303030",
"{ 	c #F3F3F3",
"] 	c #F5F5F5",
"^ 	c #F6F6F6",
"/ 	c #FBFBFB",
"( 	c #575757",
"_ 	c #ECECEC",
": 	c #EAEAEA",
"< 	c #E7E7E7",
"[ 	c #E4E4E4",
"} 	c #E2E2E2",
"| 	c #BCBCBC",
"1 	c #050505",
"2 	c #000000",
"3 	c #FCFCFC",
"4 	c #EDEDED",
"5 	c #E8E8E8",
"6 	c #E5E5E5",
"7 	c #BDBDBD",
"8 	c #F8F8F8",
"9 	c #F9F9F9",
"0 	c #EEEEEE",
"a 	c #EBEBEB",
"b 	c #E6E6E6",
"c 	c #E3E3E3",
"d 	c #FFFFFF",
"e 	c #FAFAFA",
"f 	c #565656",
"g 	c #E9E9E9",
"h 	c #F1F1F1",
"i 	c #545454",
"j 	c #DCDCDC",
"k 	c #535353",
"l 	c #BBBABA",
"m 	c #B7B1AB",
"n 	c #515151",
"o 	c #BABABA",
"p 	c #377CB3",
"q 	c #6199C5",
"r 	c #AACAE3",
"s 	c #C4E0F5",
"t 	c #505050",
"u 	c #B9B5B2",
"v 	c #8E9092",
"w 	c #497AA3",
"x 	c #6A98C1",
"y 	c #77B1E3",
"z 	c #A9A9A9",
"A 	c #C9C9C9",
"B 	c #D5D5D5",
"C 	c #4F4F4F",
"D 	c #C8C8C8",
"E 	c #B5ADA4",
"F 	c #2B292C",
"G 	c #565050",
"H 	c #534D4E",
"I 	c #566E63",
"J 	c #525252",
"K 	c #484848",
"L 	c #909090",
"M 	c #4D4D4D",
"N 	c #877D74",
"O 	c #448129",
"P 	c #1D4112",
"Q 	c #3D8120",
"R 	c #63AB44",
"S 	c #B9B9B9",
"T 	c #FBF9F6",
"U 	c #F3EAE0",
"V 	c #727272",
"W 	c #4B4B4B",
"X 	c #C5C5C5",
"Y 	c #E1E1E1",
"Z 	c #DFDFDF",
"` 	c #DDDDDD",
" .	c #EBDAC0",
"..	c #5E5E5E",
"+.	c #4A4A4A",
"@.	c #C3C3C3",
"#.	c #E5C9A0",
"$.	c #F7F7F7",
"%.	c #C0C0C0",
"&.	c #3F3F3F",
"*.	c #DEDEDE",
"=.	c #9E9E9E",
"                                            ",
"                                            ",
"    . . . . . . . . . . . . . . . . . +     ",
"    . @ # $ % & $ * # = - ; > , ' ) ! ~     ",
"    . # { ] ^ ^ { / # ( # _ : < [ } | ~     ",
"    . $ ] 1 2 2 ^ 3 # ( $ 4 : 5 6 } 7 ~     ",
"    . % ^ 8 / 3 9 3 # ( $ 0 a 5 b c 7 ~     ",
"    . & ^ 9 3 d e 3 # f % 0 a g b c 7 ~     ",
"    . % h 1 2 2 ^ e # i $ 0 a 5 b c 7 ~     ",
"    . j d d d d e d # k $ ! l m 2 2 7 ~     ",
"    . # # # # # * } # n # o p q r s | ~     ",
"    . = ( ( ( f ( f i t @ u v w x y ! ~     ",
"    . z A @ @ # B } # C D E F G H I o ~     ",
"    . ; J J J K L 9 # M ; N O P Q R S ~     ",
"    . > J d T U V 8 # W X 6 c Y Z ` S ~     ",
"    . , J d U  ...8 # +.@.c Y Z ` j S ~     ",
"    . ' K U  .#.W $.# K %.Y Z ` j j S ~     ",
"    . ) ~ 2 2 2 &.^ # K ' *.` j j j S ~     ",
"    . ! | 7 7 7 | A # = =.S S S S S S ~     ",
"    + ~ ~ ~ ~ ~ ~ ~ ~ ~ ~ ~ ~ ~ ~ ~ ~ ~     ",
"                                            ",
"                                            "};
