/* XPM */
static char * vmbutton1_xpm[] = {
"22 22 76 1",
" 	c None",
".	c #585858",
"+	c #494949",
"@	c #CACACA",
"#	c #CBCBCB",
"$	c #CCCCCC",
"%	c #CDCDCD",
"&	c #CECECE",
"*	c #C8C8C8",
"=	c #C6C6C6",
"-	c #C4C4C4",
";	c #C2C2C2",
">	c #BFBFBF",
",	c #BEBEBE",
"'	c #BBBBBB",
")	c #303030",
"!	c #F3F3F3",
"~	c #F5F5F5",
"{	c #F6F6F6",
"]	c #F1F1F1",
"^	c #EEEEEE",
"/	c #ECECEC",
"(	c #EAEAEA",
"_	c #E7E7E7",
":	c #E4E4E4",
"<	c #E2E2E2",
"[	c #BCBCBC",
"}	c #F7F7F7",
"|	c #050505",
"1	c #000000",
"2	c #E5E5E5",
"3	c #BDBDBD",
"4	c #F8F8F8",
"5	c #FBFBFB",
"6	c #FCFCFC",
"7	c #F0F0F0",
"8	c #EBEBEB",
"9	c #E8E8E8",
"0	c #E6E6E6",
"a	c #E3E3E3",
"b	c #F9F9F9",
"c	c #FFFFFF",
"d	c #F4F4F4",
"e	c #E9E9E9",
"f	c #E1E1E1",
"g	c #DFDFDF",
"h	c #DCDCDC",
"i	c #777777",
"j	c #575757",
"k	c #565656",
"l	c #545454",
"m	c #535353",
"n	c #515151",
"o	c #505050",
"p	c #4F4F4F",
"q	c #4D4D4D",
"r	c #4B4B4B",
"s	c #4A4A4A",
"t	c #484848",
"u	c #A9A9A9",
"v	c #C9C9C9",
"w	c #C3C3C3",
"x	c #C1C1C1",
"y	c #9D9D9D",
"z	c #525252",
"A	c #353535",
"B	c #EDEDED",
"C	c #DEDEDE",
"D	c #B9B9B9",
"E	c #FBF9F6",
"F	c #F3EAE0",
"G	c #DDDDDD",
"H	c #EBDAC0",
"I	c #E5C9A0",
"J	c #E0E0E0",
"K	c #BABABA",
"                      ",
"                      ",
"  .................+  ",
"  .@#$%&%$#@*=-;>,')  ",
"  .#!~{{{~!]^/(_:<[)  ",
"  .$~}|11}1111112<3)  ",
"  .%{45654{!7^890a3)  ",
"  .&{b6c6b{d]^8e0a3)  ",
"  .%]!|11!111111fg3)  ",
"  .hcccccccccccccch)  ",
"  .################)  ",
"  .ijjjklmnopqrstti)  ",
"  .uv@@#@@v*=-wx>3y)  ",
"  .=zzztAB/8e_2afCD)  ",
"  .-zcEF1((9_2afgGD)  ",
"  .;zcFH19111111GhD)  ",
"  .>tFHI12:a<fgGhhD)  ",
"  .,)1111<<fJCGhhhD)  ",
"  .'[33333['KDDDDDD)  ",
"  +)))))))))))))))))  ",
"                      ",
"                      "};
