/* XPM */
static char * vmbutton3_xpm[] = {
"22 22 144 2",
"  	c None",
". 	c #585858",
"+ 	c #494949",
"@ 	c #CACACA",
"# 	c #CBCBCB",
"$ 	c #CCCCCC",
"% 	c #CDCDCD",
"& 	c #CECECE",
"* 	c #C8C8C8",
"= 	c #C6C6C6",
"- 	c #C4C4C4",
"; 	c #C2C2C2",
"> 	c #BFBFBF",
", 	c #BEBEBE",
"' 	c #BBBBBB",
") 	c #303030",
"! 	c #F3F3F3",
"~ 	c #F5F5F5",
"{ 	c #F6F6F6",
"] 	c #F1F1F1",
"^ 	c #EEEEEE",
"/ 	c #ECECEC",
"( 	c #EAEAEA",
"_ 	c #E7E7E7",
": 	c #E4E4E4",
"< 	c #E2E2E2",
"[ 	c #BCBCBC",
"} 	c #F7F7F7",
"| 	c #F8F8F8",
"1 	c #F9F9F9",
"2 	c #F2F2F2",
"3 	c #F0F0F0",
"4 	c #EDEDED",
"5 	c #E8E8E8",
"6 	c #E5E5E5",
"7 	c #BDBDBD",
"8 	c #BAB8B7",
"9 	c #B8B3B0",
"0 	c #B5AFA9",
"a 	c #A29A93",
"b 	c #070706",
"c 	c #000000",
"d 	c #E3E3E3",
"e 	c #D8E5EF",
"f 	c #8CB2CE",
"g 	c #8EB4D0",
"h 	c #8FB5D1",
"i 	c #8CB3D0",
"j 	c #96BDDA",
"k 	c #C1DCEF",
"l 	c #E3F2FD",
"m 	c #E2F1FC",
"n 	c #CEE5F6",
"o 	c #676665",
"p 	c #BABABA",
"q 	c #B2C9DB",
"r 	c #377BB1",
"s 	c #4A89BA",
"t 	c #4D89B8",
"u 	c #5A95C3",
"v 	c #4F8DBE",
"w 	c #8EB5D5",
"x 	c #DEE9F2",
"y 	c #D8E5F0",
"z 	c #9FC2DD",
"A 	c #646260",
"B 	c #B9B8B6",
"C 	c #B3CADE",
"D 	c #BCD4E7",
"E 	c #DCDBDA",
"F 	c #537EA3",
"G 	c #4A88BD",
"H 	c #3D7EB4",
"I 	c #73A5CE",
"J 	c #A2C4DF",
"K 	c #A0C2DE",
"L 	c #89B4D8",
"M 	c #656361",
"N 	c #B8B3AF",
"O 	c #9D9C9B",
"P 	c #4B4B4A",
"Q 	c #8B8B8B",
"R 	c #DCD7D2",
"S 	c #335E80",
"T 	c #857C74",
"U 	c #678AA9",
"V 	c #6198C9",
"W 	c #649DCF",
"X 	c #6AA3D6",
"Y 	c #676461",
"Z 	c #B5AEA6",
"` 	c #D6D7D7",
" .	c #575757",
"..	c #424242",
"+.	c #101010",
"@.	c #555453",
"#.	c #9E9E9E",
"$.	c #939291",
"%.	c #3B4146",
"&.	c #84ABD3",
"*.	c #545860",
"=.	c #676767",
"-.	c #E1E1E1",
";.	c #B4A9A0",
">.	c #BCC8B8",
",.	c #10150E",
"'.	c #181719",
").	c #5B5C5B",
"!.	c #646265",
"~.	c #353336",
"{.	c #21311B",
"].	c #193D04",
"^.	c #548040",
"/.	c #686569",
"(.	c #E0E0E0",
"_.	c #A3978D",
":.	c #CCE5C4",
"<.	c #478E28",
"[.	c #1F5309",
"}.	c #0F4100",
"|.	c #216006",
"1.	c #287208",
"2.	c #2E8509",
"3.	c #5AA539",
"4.	c #52A430",
"5.	c #68636A",
"6.	c #DEDEDE",
"7.	c #B9B9B9",
"8.	c #989698",
"9.	c #959097",
"0.	c #989499",
"a.	c #9A9A9A",
"b.	c #99959A",
"c.	c #979399",
"d.	c #979299",
"e.	c #969199",
"f.	c #948F96",
"g.	c #969198",
"h.	c #323332",
"i.	c #DDDDDD",
"j.	c #E9E9E9",
"k.	c #E6E6E6",
"l.	c #DFDFDF",
"m.	c #DCDCDC",
"                                            ",
"                                            ",
"    . . . . . . . . . . . . . . . . . +     ",
"    . @ # $ % & % $ # @ * = - ; > , ' )     ",
"    . # ! ~ { { { ~ ! ] ^ / ( _ : < [ )     ",
"    . $ ~ } | 1 | } ~ 2 3 4 ( 5 6 < 7 )     ",
"    . % { ' ' ' 8 9 0 a b c c c c d 7 )     ",
"    . & { ' e f g h i j k l m n o d 7 )     ",
"    . % { p q r s t u v w x y z A d 7 )     ",
"    . $ ~ B C D E F G H I J K L M < 7 )     ",
"    . # ! N O P Q R S T U V W X Y < [ )     ",
"    . @ ] Z `  ...+.@.#.$.%.&.*.=.-.' )     ",
"    . * ^ ;.>.,.'.).!.~.c {.].^./.(.p )     ",
"    . = / _.:.<.[.c }.|.1.2.3.4.5.6.7.)     ",
"    . - ( c 8.9.0.a.b.c.d.e.f.g.h.i.7.)     ",
"    . ; _ 5 5 j.5 5 _ k.6 d -.l.i.m.7.)     ",
"    . > : 6 k.k.k.6 : d < -.l.i.m.m.7.)     ",
"    . , < < d d d < < -.(.6.i.m.m.m.7.)     ",
"    . ' [ 7 7 7 7 7 [ ' p 7.7.7.7.7.7.)     ",
"    + ) ) ) ) ) ) ) ) ) ) ) ) ) ) ) ) )     ",
"                                            ",
"                                            "};
