/* XPM */
static char * vmbutton1_xpm[] = {
"22 22 62 1",
" 	c None",
".	c #585858",
"+	c #494949",
"@	c #CACACA",
"#	c #CBCBCB",
"$	c #CCCCCC",
"%	c #CDCDCD",
"&	c #CFCFCF",
"*	c #777777",
"=	c #AAAAAA",
"-	c #C6C6C6",
";	c #C4C4C4",
">	c #C2C2C2",
",	c #BFBFBF",
"'	c #BEBEBE",
")	c #BBBBBB",
"!	c #303030",
"~	c #F5F5F5",
"{	c #F6F6F6",
"]	c #FBFBFB",
"^	c #575757",
"/	c #525252",
"(	c #4E4E4E",
"_	c #393939",
":	c #EAEAEA",
"<	c #F8F8F8",
"[	c #000000",
"}	c #FCFCFC",
"|	c #FFFFFF",
"1	c #2D2B28",
"2	c #F9F9F9",
"3	c #FFF2D3",
"4	c #2F2A22",
"5	c #EBEBEB",
"6	c #CECECE",
"7	c #565656",
"8	c #343434",
"9	c #2E2A22",
"0	c #080706",
"a	c #FAFAFA",
"b	c #545454",
"c	c #EEEEEE",
"d	c #E8E8E8",
"e	c #E6E6E6",
"f	c #E3E3E3",
"g	c #535353",
"h	c #515151",
"i	c #505050",
"j	c #DCDCDC",
"k	c #4F4F4F",
"l	c #4D4D4D",
"m	c #4B4B4B",
"n	c #4A4A4A",
"o	c #E1E1E1",
"p	c #484848",
"q	c #DFDFDF",
"r	c #DDDDDD",
"s	c #BCBCBC",
"t	c #BDBDBD",
"u	c #C9C9C9",
"v	c #9E9E9E",
"w	c #B9B9B9",
"                      ",
"                      ",
" ...................+ ",
" .@#$%&#*=-;>;;;>,')! ",
" .#~{{]#^=//(_://(_)! ",
" .$<[[}#^=/||1:/||1)! ",
" .%2]}}#^=(|345(|34)! ",
" .6<}|}#7=819058190)! ",
" .%2[[a#b=c5d555def)! ",
" .%2]}}#g=//(_://(_)! ",
" .62}|}#h=/||1:/||1)! ",
" .%~[[a#i=(|345(|34)! ",
" .j<]}}#k=819058190)! ",
" .#2}|}#l=c5d555def)! ",
" .;<[[a#m=//(_f//(_)! ",
" .>2}|}#n=/||1o/||1)! ",
" .,2}|}#p=(|34q(|34)! ",
" .'2[[a#p=8190r8190)! ",
" .)sttu#*vwwwwwwwwww! ",
" +!!!!!!!!!!!!!!!!!!! ",
"                      ",
"                      "};
